<svg version="1.1" viewBox="0.0 0.0 960.0 720.0" fill="none" stroke="none" stroke-linecap="square" stroke-miterlimit="10" xmlns:xlink="http://www.w3.org/1999/xlink" xmlns="http://www.w3.org/2000/svg"><clipPath id="p.0"><path d="m0 0l960.0 0l0 720.0l-960.0 0l0 -720.0z" clip-rule="nonzero"/></clipPath><g clip-path="url(#p.0)"><path fill="#000000" fill-opacity="0.0" d="m0 0l960.0 0l0 720.0l-960.0 0z" fill-rule="evenodd"/><path fill="#ffffff" d="m60.639107 86.758865l0 0c0 -9.248421 7.497322 -16.745743 16.745743 -16.745743l66.980965 0l0 0c4.4412384 0 8.700577 1.7642822 11.841019 4.9047165c3.140442 3.1404343 4.904709 7.3997803 4.904709 11.841026l0 66.98096c0 9.248413 -7.4973145 16.745743 -16.745728 16.745743l-66.980965 0c-9.248421 0 -16.745743 -7.4973297 -16.745743 -16.745743z" fill-rule="evenodd"/><path stroke="#000000" stroke-width="3.0" stroke-linejoin="round" stroke-linecap="butt" d="m60.639107 86.758865l0 0c0 -9.248421 7.497322 -16.745743 16.745743 -16.745743l66.980965 0l0 0c4.4412384 0 8.700577 1.7642822 11.841019 4.9047165c3.140442 3.1404343 4.904709 7.3997803 4.904709 11.841026l0 66.98096c0 9.248413 -7.4973145 16.745743 -16.745728 16.745743l-66.980965 0c-9.248421 0 -16.745743 -7.4973297 -16.745743 -16.745743z" fill-rule="evenodd"/><path fill="#ffffff" d="m0 17.11811l0 0c0 -9.454071 7.664039 -17.11811 17.11811 -17.11811l0 0c4.5400047 0 8.894064 1.80351 12.104332 5.013778c3.210266 3.2102685 5.0137787 7.564327 5.0137787 12.104332l0 0c0 9.454071 -7.6640396 17.11811 -17.11811 17.11811l0 0c-9.454071 0 -17.11811 -7.6640396 -17.11811 -17.11811z" fill-rule="evenodd"/><path fill="#ffffff" d="m925.7638 702.8819l0 0c0 -9.454102 7.6640015 -17.118103 17.118103 -17.118103l0 0c4.539978 0 8.894043 1.8034668 12.104309 5.013794c3.210266 3.210266 5.013794 7.56427 5.013794 12.104309l0 0c0 9.454041 -7.6640625 17.118103 -17.118103 17.118103l0 0c-9.454102 0 -17.118103 -7.6640625 -17.118103 -17.118103z" fill-rule="evenodd"/><path fill="#ffffff" d="m76.63911 102.758865l0 0c0 -9.248421 7.497322 -16.745743 16.745743 -16.745743l66.980965 0l0 0c4.4412384 0 8.700577 1.7642822 11.841019 4.9047165c3.140442 3.1404343 4.904709 7.3997803 4.904709 11.841026l0 66.98096c0 9.248413 -7.4973145 16.745743 -16.745728 16.745743l-66.980965 0c-9.248421 0 -16.745743 -7.4973297 -16.745743 -16.745743z" fill-rule="evenodd"/><path stroke="#000000" stroke-width="3.0" stroke-linejoin="round" stroke-linecap="butt" d="m76.63911 102.758865l0 0c0 -9.248421 7.497322 -16.745743 16.745743 -16.745743l66.980965 0l0 0c4.4412384 0 8.700577 1.7642822 11.841019 4.9047165c3.140442 3.1404343 4.904709 7.3997803 4.904709 11.841026l0 66.98096c0 9.248413 -7.4973145 16.745743 -16.745728 16.745743l-66.980965 0c-9.248421 0 -16.745743 -7.4973297 -16.745743 -16.745743z" fill-rule="evenodd"/><path fill="#ffffff" d="m92.63911 118.758865l0 0c0 -9.248421 7.497322 -16.745743 16.745743 -16.745743l66.980965 0l0 0c4.4412384 0 8.700577 1.7642822 11.841019 4.9047165c3.140442 3.1404343 4.904709 7.3997803 4.904709 11.841026l0 66.98096c0 9.248413 -7.4973145 16.745743 -16.745728 16.745743l-66.980965 0c-9.248421 0 -16.745743 -7.4973297 -16.745743 -16.745743z" fill-rule="evenodd"/><path stroke="#000000" stroke-width="3.0" stroke-linejoin="round" stroke-linecap="butt" d="m92.63911 118.758865l0 0c0 -9.248421 7.497322 -16.745743 16.745743 -16.745743l66.980965 0l0 0c4.4412384 0 8.700577 1.7642822 11.841019 4.9047165c3.140442 3.1404343 4.904709 7.3997803 4.904709 11.841026l0 66.98096c0 9.248413 -7.4973145 16.745743 -16.745728 16.745743l-66.980965 0c-9.248421 0 -16.745743 -7.4973297 -16.745743 -16.745743z" fill-rule="evenodd"/><path fill="#ffffff" d="m60.639107 310.50952l0 0c0 -9.248413 7.497322 -16.745728 16.745743 -16.745728l66.980965 0l0 0c4.4412384 0 8.700577 1.7642517 11.841019 4.9046936c3.140442 3.140442 4.904709 7.3997803 4.904709 11.841034l0 66.98096c0 9.248413 -7.4973145 16.745728 -16.745728 16.745728l-66.980965 0c-9.248421 0 -16.745743 -7.4973145 -16.745743 -16.745728z" fill-rule="evenodd"/><path stroke="#000000" stroke-width="3.0" stroke-linejoin="round" stroke-linecap="butt" d="m60.639107 310.50952l0 0c0 -9.248413 7.497322 -16.745728 16.745743 -16.745728l66.980965 0l0 0c4.4412384 0 8.700577 1.7642517 11.841019 4.9046936c3.140442 3.140442 4.904709 7.3997803 4.904709 11.841034l0 66.98096c0 9.248413 -7.4973145 16.745728 -16.745728 16.745728l-66.980965 0c-9.248421 0 -16.745743 -7.4973145 -16.745743 -16.745728z" fill-rule="evenodd"/><path fill="#ffffff" d="m76.63911 326.50952l0 0c0 -9.248413 7.497322 -16.745728 16.745743 -16.745728l66.980965 0l0 0c4.4412384 0 8.700577 1.7642517 11.841019 4.9046936c3.140442 3.140442 4.904709 7.3997803 4.904709 11.841034l0 66.98096c0 9.248413 -7.4973145 16.745728 -16.745728 16.745728l-66.980965 0c-9.248421 0 -16.745743 -7.4973145 -16.745743 -16.745728z" fill-rule="evenodd"/><path stroke="#000000" stroke-width="3.0" stroke-linejoin="round" stroke-linecap="butt" d="m76.63911 326.50952l0 0c0 -9.248413 7.497322 -16.745728 16.745743 -16.745728l66.980965 0l0 0c4.4412384 0 8.700577 1.7642517 11.841019 4.9046936c3.140442 3.140442 4.904709 7.3997803 4.904709 11.841034l0 66.98096c0 9.248413 -7.4973145 16.745728 -16.745728 16.745728l-66.980965 0c-9.248421 0 -16.745743 -7.4973145 -16.745743 -16.745728z" fill-rule="evenodd"/><path fill="#ffffff" d="m92.63911 342.50952l0 0c0 -9.248413 7.497322 -16.745728 16.745743 -16.745728l66.980965 0l0 0c4.4412384 0 8.700577 1.7642517 11.841019 4.9046936c3.140442 3.140442 4.904709 7.3997803 4.904709 11.841034l0 66.98096c0 9.248413 -7.4973145 16.745728 -16.745728 16.745728l-66.980965 0c-9.248421 0 -16.745743 -7.4973145 -16.745743 -16.745728z" fill-rule="evenodd"/><path stroke="#000000" stroke-width="3.0" stroke-linejoin="round" stroke-linecap="butt" d="m92.63911 342.50952l0 0c0 -9.248413 7.497322 -16.745728 16.745743 -16.745728l66.980965 0l0 0c4.4412384 0 8.700577 1.7642517 11.841019 4.9046936c3.140442 3.140442 4.904709 7.3997803 4.904709 11.841034l0 66.98096c0 9.248413 -7.4973145 16.745728 -16.745728 16.745728l-66.980965 0c-9.248421 0 -16.745743 -7.4973145 -16.745743 -16.745728z" fill-rule="evenodd"/><path fill="#ffffff" d="m60.639107 518.2602l0 0c0 -9.248444 7.497322 -16.745758 16.745743 -16.745758l66.980965 0l0 0c4.4412384 0 8.700577 1.7642822 11.841019 4.904724c3.140442 3.140442 4.904709 7.3997498 4.904709 11.841034l0 66.98096c0 9.248413 -7.4973145 16.745728 -16.745728 16.745728l-66.980965 0c-9.248421 0 -16.745743 -7.4973145 -16.745743 -16.745728z" fill-rule="evenodd"/><path stroke="#000000" stroke-width="3.0" stroke-linejoin="round" stroke-linecap="butt" d="m60.639107 518.2602l0 0c0 -9.248444 7.497322 -16.745758 16.745743 -16.745758l66.980965 0l0 0c4.4412384 0 8.700577 1.7642822 11.841019 4.904724c3.140442 3.140442 4.904709 7.3997498 4.904709 11.841034l0 66.98096c0 9.248413 -7.4973145 16.745728 -16.745728 16.745728l-66.980965 0c-9.248421 0 -16.745743 -7.4973145 -16.745743 -16.745728z" fill-rule="evenodd"/><path fill="#ffffff" d="m76.63911 534.2602l0 0c0 -9.248413 7.497322 -16.745728 16.745743 -16.745728l66.980965 0l0 0c4.4412384 0 8.700577 1.7642212 11.841019 4.904663c3.140442 3.140442 4.904709 7.3997803 4.904709 11.841064l0 66.98096c0 9.248413 -7.4973145 16.745728 -16.745728 16.745728l-66.980965 0c-9.248421 0 -16.745743 -7.4973145 -16.745743 -16.745728z" fill-rule="evenodd"/><path stroke="#000000" stroke-width="3.0" stroke-linejoin="round" stroke-linecap="butt" d="m76.63911 534.2602l0 0c0 -9.248413 7.497322 -16.745728 16.745743 -16.745728l66.980965 0l0 0c4.4412384 0 8.700577 1.7642212 11.841019 4.904663c3.140442 3.140442 4.904709 7.3997803 4.904709 11.841064l0 66.98096c0 9.248413 -7.4973145 16.745728 -16.745728 16.745728l-66.980965 0c-9.248421 0 -16.745743 -7.4973145 -16.745743 -16.745728z" fill-rule="evenodd"/><path fill="#ffffff" d="m92.63911 550.2602l0 0c0 -9.248413 7.497322 -16.745728 16.745743 -16.745728l66.980965 0l0 0c4.4412384 0 8.700577 1.7642212 11.841019 4.904663c3.140442 3.140442 4.904709 7.3997803 4.904709 11.841064l0 66.98096c0 9.248413 -7.4973145 16.745728 -16.745728 16.745728l-66.980965 0c-9.248421 0 -16.745743 -7.4973145 -16.745743 -16.745728z" fill-rule="evenodd"/><path stroke="#000000" stroke-width="3.0" stroke-linejoin="round" stroke-linecap="butt" d="m92.63911 550.2602l0 0c0 -9.248413 7.497322 -16.745728 16.745743 -16.745728l66.980965 0l0 0c4.4412384 0 8.700577 1.7642212 11.841019 4.904663c3.140442 3.140442 4.904709 7.3997803 4.904709 11.841064l0 66.98096c0 9.248413 -7.4973145 16.745728 -16.745728 16.745728l-66.980965 0c-9.248421 0 -16.745743 -7.4973145 -16.745743 -16.745728z" fill-rule="evenodd"/><path fill="#3d85c6" d="m239.66405 563.6562l20.094498 0l0 20.094482l-20.094498 0z" fill-rule="evenodd"/><path stroke="#000000" stroke-width="3.0" stroke-linejoin="round" stroke-linecap="butt" d="m239.66405 563.6562l20.094498 0l0 20.094482l-20.094498 0z" fill-rule="evenodd"/><path fill="#3d85c6" d="m239.66405 583.7507l20.094498 0l0 20.094482l-20.094498 0z" fill-rule="evenodd"/><path stroke="#000000" stroke-width="3.0" stroke-linejoin="round" stroke-linecap="butt" d="m239.66405 583.7507l20.094498 0l0 20.094482l-20.094498 0z" fill-rule="evenodd"/><path fill="#ffffff" d="m259.75854 563.6562l46.551178 0l0 40.188965l-46.551178 0z" fill-rule="evenodd"/><path stroke="#000000" stroke-width="3.0" stroke-linejoin="round" stroke-linecap="butt" d="m259.75854 563.6562l46.551178 0l0 40.188965l-46.551178 0z" fill-rule="evenodd"/><path fill="#674ea7" d="m239.66405 120.1706l20.094498 0l0 20.09449l-20.094498 0z" fill-rule="evenodd"/><path stroke="#000000" stroke-width="3.0" stroke-linejoin="round" stroke-linecap="butt" d="m239.66405 120.1706l20.094498 0l0 20.09449l-20.094498 0z" fill-rule="evenodd"/><path fill="#674ea7" d="m239.66405 140.26509l20.094498 0l0 20.094482l-20.094498 0z" fill-rule="evenodd"/><path stroke="#000000" stroke-width="3.0" stroke-linejoin="round" stroke-linecap="butt" d="m239.66405 140.26509l20.094498 0l0 20.094482l-20.094498 0z" fill-rule="evenodd"/><path fill="#674ea7" d="m239.66405 160.35957l20.094498 0l0 20.094498l-20.094498 0z" fill-rule="evenodd"/><path stroke="#000000" stroke-width="3.0" stroke-linejoin="round" stroke-linecap="butt" d="m239.66405 160.35957l20.094498 0l0 20.094498l-20.094498 0z" fill-rule="evenodd"/><path fill="#ffffff" d="m259.75854 120.1706l46.551178 0l0 60.28347l-46.551178 0z" fill-rule="evenodd"/><path stroke="#000000" stroke-width="3.0" stroke-linejoin="round" stroke-linecap="butt" d="m259.75854 120.1706l46.551178 0l0 60.28347l-46.551178 0z" fill-rule="evenodd"/><path fill="#a64d79" d="m241.7664 355.90552l20.094498 0l0 20.094482l-20.094498 0z" fill-rule="evenodd"/><path stroke="#000000" stroke-width="3.0" stroke-linejoin="round" stroke-linecap="butt" d="m241.7664 355.90552l20.094498 0l0 20.094482l-20.094498 0z" fill-rule="evenodd"/><path fill="#a64d79" d="m241.7664 376.0l20.094498 0l0 20.094482l-20.094498 0z" fill-rule="evenodd"/><path stroke="#000000" stroke-width="3.0" stroke-linejoin="round" stroke-linecap="butt" d="m241.7664 376.0l20.094498 0l0 20.094482l-20.094498 0z" fill-rule="evenodd"/><path fill="#ffffff" d="m261.8609 355.90552l46.551178 0l0 40.188965l-46.551178 0z" fill-rule="evenodd"/><path stroke="#000000" stroke-width="3.0" stroke-linejoin="round" stroke-linecap="butt" d="m261.8609 355.90552l46.551178 0l0 40.188965l-46.551178 0z" fill-rule="evenodd"/><path fill="#000000" fill-opacity="0.0" d="m193.11154 152.24934l46.551193 -1.9212646" fill-rule="evenodd"/><path stroke="#000000" stroke-width="3.0" stroke-linejoin="round" stroke-linecap="butt" d="m193.11154 152.24934l28.566498 -1.1790009" fill-rule="evenodd"/><path fill="#000000" stroke="#000000" stroke-width="3.0" stroke-linecap="butt" d="m221.88239 156.02133l13.398361 -5.51239l-13.807037 -4.389572z" fill-rule="evenodd"/><path fill="#000000" fill-opacity="0.0" d="m193.11154 376.0l46.551193 0" fill-rule="evenodd"/><path stroke="#000000" stroke-width="3.0" stroke-linejoin="round" stroke-linecap="butt" d="m193.11154 376.0l28.551193 0" fill-rule="evenodd"/><path fill="#000000" stroke="#000000" stroke-width="3.0" stroke-linecap="butt" d="m221.66273 380.9552l13.614288 -4.9552l-13.614288 -4.9552z" fill-rule="evenodd"/><path fill="#000000" fill-opacity="0.0" d="m193.11154 583.7507l46.551193 0" fill-rule="evenodd"/><path stroke="#000000" stroke-width="3.0" stroke-linejoin="round" stroke-linecap="butt" d="m193.11154 583.7507l28.551193 0" fill-rule="evenodd"/><path fill="#000000" stroke="#000000" stroke-width="3.0" stroke-linecap="butt" d="m221.66273 588.7059l13.614288 -4.9552l-13.614288 -4.9552z" fill-rule="evenodd"/><path fill="#ffffff" d="m480.0 359.71652l20.094482 0l0 20.094513l-20.094482 0z" fill-rule="evenodd"/><path stroke="#000000" stroke-width="3.0" stroke-linejoin="round" stroke-linecap="butt" d="m480.0 359.71652l20.094482 0l0 20.094513l-20.094482 0z" fill-rule="evenodd"/><path fill="#ffffff" d="m480.0 379.81104l20.094482 0l0 20.094482l-20.094482 0z" fill-rule="evenodd"/><path stroke="#000000" stroke-width="3.0" stroke-linejoin="round" stroke-linecap="butt" d="m480.0 379.81104l20.094482 0l0 20.094482l-20.094482 0z" fill-rule="evenodd"/><path fill="#3d85c6" d="m691.7769 541.1286l20.094482 0l0 20.094482l-20.094482 0z" fill-rule="evenodd"/><path stroke="#000000" stroke-width="3.0" stroke-linejoin="round" stroke-linecap="butt" d="m691.7769 541.1286l20.094482 0l0 20.094482l-20.094482 0z" fill-rule="evenodd"/><path fill="#3d85c6" d="m691.7769 561.2231l20.094482 0l0 20.094482l-20.094482 0z" fill-rule="evenodd"/><path stroke="#000000" stroke-width="3.0" stroke-linejoin="round" stroke-linecap="butt" d="m691.7769 561.2231l20.094482 0l0 20.094482l-20.094482 0z" fill-rule="evenodd"/><path fill="#cfe2f3" d="m691.7769 581.31757l20.094482 0l0 20.094482l-20.094482 0z" fill-rule="evenodd"/><path stroke="#000000" stroke-width="3.0" stroke-linejoin="round" stroke-linecap="butt" d="m691.7769 581.31757l20.094482 0l0 20.094482l-20.094482 0z" fill-rule="evenodd"/><path fill="#cfe2f3" d="m691.7769 601.41205l20.094482 0l0 20.094543l-20.094482 0z" fill-rule="evenodd"/><path stroke="#000000" stroke-width="3.0" stroke-linejoin="round" stroke-linecap="butt" d="m691.7769 601.41205l20.094482 0l0 20.094543l-20.094482 0z" fill-rule="evenodd"/><path fill="#cfe2f3" d="m691.7769 621.5066l20.094482 0l0 20.094482l-20.094482 0z" fill-rule="evenodd"/><path stroke="#000000" stroke-width="3.0" stroke-linejoin="round" stroke-linecap="butt" d="m691.7769 621.5066l20.094482 0l0 20.094482l-20.094482 0z" fill-rule="evenodd"/><path fill="#3d85c6" d="m711.8714 541.1286l88.22046 0l0 100.47247l-88.22046 0z" fill-rule="evenodd"/><path stroke="#000000" stroke-width="3.0" stroke-linejoin="round" stroke-linecap="butt" d="m711.8714 541.1286l88.22046 0l0 100.47247l-88.22046 0z" fill-rule="evenodd"/><path fill="#674ea7" d="m691.7743 110.39895l20.094482 0l0 20.09449l-20.094482 0z" fill-rule="evenodd"/><path stroke="#000000" stroke-width="3.0" stroke-linejoin="round" stroke-linecap="butt" d="m691.7743 110.39895l20.094482 0l0 20.09449l-20.094482 0z" fill-rule="evenodd"/><path fill="#674ea7" d="m691.7743 130.49344l20.094482 0l0 20.094482l-20.094482 0z" fill-rule="evenodd"/><path stroke="#000000" stroke-width="3.0" stroke-linejoin="round" stroke-linecap="butt" d="m691.7743 130.49344l20.094482 0l0 20.094482l-20.094482 0z" fill-rule="evenodd"/><path fill="#674ea7" d="m691.7743 150.58792l20.094482 0l0 20.094498l-20.094482 0z" fill-rule="evenodd"/><path stroke="#000000" stroke-width="3.0" stroke-linejoin="round" stroke-linecap="butt" d="m691.7743 150.58792l20.094482 0l0 20.094498l-20.094482 0z" fill-rule="evenodd"/><path fill="#d9d2e9" d="m691.7743 170.68242l20.094482 0l0 20.094482l-20.094482 0z" fill-rule="evenodd"/><path stroke="#000000" stroke-width="3.0" stroke-linejoin="round" stroke-linecap="butt" d="m691.7743 170.68242l20.094482 0l0 20.094482l-20.094482 0z" fill-rule="evenodd"/><path fill="#d9d2e9" d="m691.7743 190.7769l20.094482 0l0 20.094482l-20.094482 0z" fill-rule="evenodd"/><path stroke="#000000" stroke-width="3.0" stroke-linejoin="round" stroke-linecap="butt" d="m691.7743 190.7769l20.094482 0l0 20.094482l-20.094482 0z" fill-rule="evenodd"/><path fill="#674ea7" d="m711.8688 110.39895l88.22046 0l0 100.472435l-88.22046 0z" fill-rule="evenodd"/><path stroke="#000000" stroke-width="3.0" stroke-linejoin="round" stroke-linecap="butt" d="m711.8688 110.39895l88.22046 0l0 100.472435l-88.22046 0z" fill-rule="evenodd"/><path fill="#a64d79" d="m691.7769 333.37796l20.094482 0l0 20.094482l-20.094482 0z" fill-rule="evenodd"/><path stroke="#000000" stroke-width="3.0" stroke-linejoin="round" stroke-linecap="butt" d="m691.7769 333.37796l20.094482 0l0 20.094482l-20.094482 0z" fill-rule="evenodd"/><path fill="#a64d79" d="m691.7769 353.47244l20.094482 0l0 20.094482l-20.094482 0z" fill-rule="evenodd"/><path stroke="#000000" stroke-width="3.0" stroke-linejoin="round" stroke-linecap="butt" d="m691.7769 353.47244l20.094482 0l0 20.094482l-20.094482 0z" fill-rule="evenodd"/><path fill="#ead1dc" d="m691.7769 373.56693l20.094482 0l0 20.094482l-20.094482 0z" fill-rule="evenodd"/><path stroke="#000000" stroke-width="3.0" stroke-linejoin="round" stroke-linecap="butt" d="m691.7769 373.56693l20.094482 0l0 20.094482l-20.094482 0z" fill-rule="evenodd"/><path fill="#ead1dc" d="m691.7769 393.6614l20.094482 0l0 20.094513l-20.094482 0z" fill-rule="evenodd"/><path stroke="#000000" stroke-width="3.0" stroke-linejoin="round" stroke-linecap="butt" d="m691.7769 393.6614l20.094482 0l0 20.094513l-20.094482 0z" fill-rule="evenodd"/><path fill="#ead1dc" d="m691.7769 413.75592l20.094482 0l0 20.094482l-20.094482 0z" fill-rule="evenodd"/><path stroke="#000000" stroke-width="3.0" stroke-linejoin="round" stroke-linecap="butt" d="m691.7769 413.75592l20.094482 0l0 20.094482l-20.094482 0z" fill-rule="evenodd"/><path fill="#a64d79" d="m711.8714 333.37796l88.22046 0l0 100.47244l-88.22046 0z" fill-rule="evenodd"/><path stroke="#000000" stroke-width="3.0" stroke-linejoin="round" stroke-linecap="butt" d="m711.8714 333.37796l88.22046 0l0 100.47244l-88.22046 0z" fill-rule="evenodd"/><path fill="#ffffff" d="m671.68243 333.37796l20.094482 0l0 100.47244l-20.094482 0z" fill-rule="evenodd"/><path stroke="#000000" stroke-width="3.0" stroke-linejoin="round" stroke-linecap="butt" d="m671.68243 333.37796l20.094482 0l0 100.47244l-20.094482 0z" fill-rule="evenodd"/><path fill="#ffffff" d="m671.68243 110.39895l20.094482 0l0 100.472435l-20.094482 0z" fill-rule="evenodd"/><path stroke="#000000" stroke-width="3.0" stroke-linejoin="round" stroke-linecap="butt" d="m671.68243 110.39895l20.094482 0l0 100.472435l-20.094482 0z" fill-rule="evenodd"/><path fill="#ffffff" d="m671.68243 541.1286l20.094482 0l0 100.47247l-20.094482 0z" fill-rule="evenodd"/><path stroke="#000000" stroke-width="3.0" stroke-linejoin="round" stroke-linecap="butt" d="m671.68243 541.1286l20.094482 0l0 100.47247l-20.094482 0z" fill-rule="evenodd"/><path fill="#000000" fill-opacity="0.0" d="m480.0 359.71652l20.094482 0l0 40.188995l-20.094482 0z" fill-rule="evenodd"/><path stroke="#000000" stroke-width="3.0" stroke-linejoin="round" stroke-linecap="butt" d="m480.0 359.71652l20.094482 0l0 40.188995l-20.094482 0z" fill-rule="evenodd"/><path fill="#000000" fill-opacity="0.0" d="m500.09448 379.81104l171.59058 -219.1811" fill-rule="evenodd"/><path stroke="#000000" stroke-width="3.0" stroke-linejoin="round" stroke-linecap="butt" stroke-dasharray="12.0,9.0" d="m500.09448 379.81104l160.49469 -205.00783" fill-rule="evenodd"/><path fill="#000000" stroke="#000000" stroke-width="3.0" stroke-linecap="butt" d="m664.4909 177.85777l4.4906006 -13.774521l-12.294067 7.66539z" fill-rule="evenodd"/><path fill="#000000" fill-opacity="0.0" d="m500.09448 379.81104l171.59058 3.8110046" fill-rule="evenodd"/><path stroke="#000000" stroke-width="3.0" stroke-linejoin="round" stroke-linecap="butt" stroke-dasharray="12.0,9.0" d="m500.09448 379.81104l153.59497 3.411316" fill-rule="evenodd"/><path fill="#000000" stroke="#000000" stroke-width="3.0" stroke-linecap="butt" d="m653.57947 388.17633l13.720947 -4.6516724l-13.500916 -5.256256z" fill-rule="evenodd"/><path fill="#000000" fill-opacity="0.0" d="m500.09448 379.81104l171.59058 211.55902" fill-rule="evenodd"/><path stroke="#000000" stroke-width="3.0" stroke-linejoin="round" stroke-linecap="butt" stroke-dasharray="12.0,9.0" d="m500.09448 379.81104l160.25189 197.57928" fill-rule="evenodd"/><path fill="#000000" stroke="#000000" stroke-width="3.0" stroke-linecap="butt" d="m656.49786 580.5117l12.4244995 7.4522095l-4.727539 -13.695068z" fill-rule="evenodd"/><path fill="#000000" fill-opacity="0.0" d="m306.30972 150.31233l173.70078 229.51183" fill-rule="evenodd"/><path stroke="#000000" stroke-width="3.0" stroke-linejoin="round" stroke-linecap="butt" d="m306.30972 150.31233l162.83817 215.15901" fill-rule="evenodd"/><path fill="#000000" stroke="#000000" stroke-width="3.0" stroke-linecap="butt" d="m465.19672 368.46167l12.167114 7.8654175l-4.2647705 -13.84613z" fill-rule="evenodd"/><path fill="#000000" fill-opacity="0.0" d="m308.40945 376.0l171.59055 3.8110352" fill-rule="evenodd"/><path stroke="#000000" stroke-width="3.0" stroke-linejoin="round" stroke-linecap="butt" d="m308.40945 376.0l153.59497 3.4113464" fill-rule="evenodd"/><path fill="#000000" stroke="#000000" stroke-width="3.0" stroke-linecap="butt" d="m461.8944 384.36533l13.720978 -4.6516724l-13.500916 -5.2562866z" fill-rule="evenodd"/><path fill="#000000" fill-opacity="0.0" d="m306.30972 583.7507l173.70078 -203.93701" fill-rule="evenodd"/><path stroke="#000000" stroke-width="3.0" stroke-linejoin="round" stroke-linecap="butt" d="m306.30972 583.7507l162.02927 -190.23386" fill-rule="evenodd"/><path fill="#000000" stroke="#000000" stroke-width="3.0" stroke-linecap="butt" d="m472.11133 396.72983l5.05542 -13.577393l-12.600067 7.1513367z" fill-rule="evenodd"/><path fill="#000000" fill-opacity="0.0" d="m60.64042 14.776903l140.81891 0l0 40.188972l-140.81891 0z" fill-rule="evenodd"/><path fill="#000000" d="m94.6905 38.169514l4.484375 1.421875q-1.03125 3.75 -3.4375 5.578125q-2.390625 1.8125 -6.078125 1.8125q-4.5625 0 -7.5 -3.109375q-2.9375 -3.125 -2.9375 -8.53125q0 -5.718748 2.953125 -8.874998q2.953125 -3.171875 7.765625 -3.171875q4.203125 0 6.828125 2.484375q1.5625 1.46875 2.34375 4.21875l-4.578125 1.09375q-0.40625 -1.78125 -1.703125 -2.8125q-1.28125 -1.03125 -3.125 -1.03125q-2.546875 0 -4.140625 1.828125q-1.578125 1.828125 -1.578125 5.921873q0 4.34375 1.5625 6.1875q1.5625 1.84375 4.0625 1.84375q1.84375 0 3.171875 -1.171875q1.328125 -1.171875 1.90625 -3.6875zm8.421875 8.421875l0 -22.906248l4.390625 0l0 22.906248l-4.390625 0zm8.890625 -18.843748l0 -4.0625l4.390625 0l0 4.0625l-4.390625 0zm0 18.843748l0 -16.593748l4.390625 0l0 16.593748l-4.390625 0zm18.500008 -5.28125l4.375 0.734375q-0.84375 2.40625 -2.671875 3.671875q-1.8125 1.25 -4.5468826 1.25q-4.328125 0 -6.40625 -2.828125q-1.640625 -2.265625 -1.640625 -5.71875q0 -4.125 2.15625 -6.453123q2.15625 -2.34375 5.453125 -2.34375q3.7031326 0 5.8437576 2.453123q2.140625 2.4375 2.046875 7.484375l-11.000008 0q0.046875 1.953125 1.0625 3.046875q1.015625 1.078125 2.53125 1.078125q1.0312576 0 1.7343826 -0.5625q0.703125 -0.5625 1.0625 -1.8125zm0.25 -4.4375q-0.046875 -1.90625 -0.984375 -2.890625q-0.9375 -1.0 -2.2812576 -1.0q-1.4375 0 -2.375 1.046875q-0.9375 1.046875 -0.921875 2.84375l6.5625076 0zm23.03125 9.71875l-4.390625 0l0 -8.46875q0 -2.6875 -0.28125 -3.46875q-0.28125 -0.796875 -0.921875 -1.234375q-0.625 -0.4375 -1.515625 -0.4375q-1.140625 0 -2.046875 0.625q-0.90625 0.625 -1.25 1.65625q-0.328125 1.03125 -0.328125 3.8125l0 7.515625l-4.390625 0l0 -16.593748l4.078125 0l0 2.437498q2.171875 -2.812498 5.46875 -2.812498q1.453125 0 2.65625 0.53125q1.203125 0.515625 1.8125 1.328125q0.625 0.8124981 0.859375 1.8437481q0.25 1.03125 0.25 2.953125l0 10.3125zm12.0625 -16.593748l0 3.499998l-3.0 0l0 6.6875q0 2.03125 0.078125 2.375q0.09375 0.328125 0.390625 0.546875q0.3125 0.21875 0.75 0.21875q0.609375 0 1.765625 -0.421875l0.375 3.40625q-1.53125 0.65625 -3.46875 0.65625q-1.1875 0 -2.140625 -0.390625q-0.953125 -0.40625 -1.40625 -1.03125q-0.4375 -0.640625 -0.609375 -1.71875q-0.140625 -0.765625 -0.140625 -3.09375l0 -7.234375l-2.015625 0l0 -3.499998l2.015625 0l0 -3.296875l4.40625 -2.5625l0 5.859375l3.0 0zm1.5 11.859373l4.40625 -0.671875q0.28125 1.28125 1.140625 1.953125q0.859375 0.65625 2.40625 0.65625q1.703125 0 2.5625 -0.625q0.578125 -0.4375 0.578125 -1.171875q0 -0.5 -0.3125 -0.828125q-0.328125 -0.3125 -1.46875 -0.578125q-5.3125 -1.171875 -6.734375 -2.140625q-1.96875 -1.34375 -1.96875 -3.734375q0 -2.15625 1.703125 -3.624998q1.703125 -1.46875 5.28125 -1.46875q3.40625 0 5.0625 1.109375q1.65625 1.109375 2.28125 3.281248l-4.140625 0.765625q-0.265625 -0.96875 -1.015625 -1.484375q-0.734375 -0.515625 -2.109375 -0.515625q-1.734375 0 -2.484375 0.484375q-0.5 0.34375 -0.5 0.890625q0 0.46875 0.4375 0.796875q0.59375 0.4375 4.09375 1.234375q3.515625 0.796875 4.90625 1.953125q1.375 1.171875 1.375 3.265625q0 2.28125 -1.90625 3.921875q-1.90625 1.640625 -5.640625 1.640625q-3.390625 0 -5.375 -1.375q-1.96875 -1.375 -2.578125 -3.734375z" fill-rule="nonzero"/><path fill="#000000" fill-opacity="0.0" d="m214.72704 14.776903l140.8189 0l0 40.188972l-140.8189 0z" fill-rule="evenodd"/><path fill="#000000" d="m227.90993 23.68514l9.15625 0q2.71875 0 4.046875 0.234375q1.34375 0.21875 2.390625 0.9375q1.0625 0.71875 1.765625 1.921875q0.703125 1.1875 0.703125 2.671875q0 1.609375 -0.875 2.953123q-0.859375 1.34375 -2.34375 2.015625q2.09375 0.609375 3.21875 2.078125q1.125 1.46875 1.125 3.453125q0 1.5625 -0.734375 3.046875q-0.71875 1.46875 -1.984375 2.359375q-1.25 0.875 -3.09375 1.078125q-1.15625 0.125 -5.578125 0.15625l-7.796875 0l0 -22.906248zm4.625 3.8125l0 5.296873l3.03125 0q2.703125 0 3.359375 -0.078125q1.1875 -0.140625 1.859375 -0.8124981q0.6875 -0.6875 0.6875 -1.796875q0 -1.0625 -0.59375 -1.71875q-0.578125 -0.671875 -1.734375 -0.8125q-0.6875 -0.078125 -3.953125 -0.078125l-2.65625 0zm0 9.109373l0 6.125l4.28125 0q2.5 0 3.171875 -0.140625q1.03125 -0.1875 1.671875 -0.90625q0.65625 -0.734375 0.65625 -1.953125q0 -1.03125 -0.5 -1.75q-0.5 -0.71875 -1.453125 -1.046875q-0.9375 -0.328125 -4.09375 -0.328125l-3.734375 0zm22.640625 9.984375l-4.390625 0l0 -16.593748l4.078125 0l0 2.359373q1.046875 -1.6718731 1.8749847 -2.203123q0.84375 -0.53125 1.90625 -0.53125q1.5 0 2.890625 0.828125l-1.359375 3.828123q-1.109375 -0.71875 -2.0625 -0.71875q-0.921875 0 -1.5625 0.515625q-0.64060974 0.5 -1.0156097 1.828125q-0.359375 1.328125 -0.359375 5.5625l0 5.125zm8.249985 -18.843748l0 -4.0625l4.390625 0l0 4.0625l-4.390625 0zm0 18.843748l0 -16.593748l4.390625 0l0 16.593748l-4.390625 0zm24.109375 0l-4.078125 0l0 -2.4375q-1.015625 1.421875 -2.40625 2.125q-1.375 0.6875 -2.78125 0.6875q-2.859375 0 -4.90625 -2.296875q-2.03125 -2.3125 -2.03125 -6.4375q0 -4.21875 1.984375 -6.406248q1.984375 -2.203125 5.015625 -2.203125q2.78125 0 4.8125 2.3125l0 -8.25l4.390625 0l0 22.906248zm-11.71875 -8.65625q0 2.65625 0.734375 3.84375q1.0625 1.71875 2.96875 1.71875q1.515625 0 2.578125 -1.28125q1.0625 -1.296875 1.0625 -3.859375q0 -2.859375 -1.03125 -4.109375q-1.03125 -1.265625 -2.640625 -1.265625q-1.5625 0 -2.625 1.25q-1.046875 1.234375 -1.046875 3.703125zm15.640625 9.75l5.015625 0.609375q0.125 0.875 0.578125 1.203125q0.625 0.46875 1.96875 0.46875q1.71875 0 2.578125 -0.515625q0.578125 -0.34375 0.875 -1.109375q0.203125 -0.546875 0.203125 -2.015625l0 -2.421875q-1.96875 2.6875 -4.96875 2.6875q-3.34375 0 -5.296875 -2.828125q-1.53125 -2.234375 -1.53125 -5.5625q0 -4.171875 2.0 -6.374998q2.015625 -2.203125 5.0 -2.203125q3.078125 0 5.078125 2.703123l0 -2.328123l4.109375 0l0 14.890623q0 2.9375 -0.484375 4.390625q-0.484375 1.453125 -1.359375 2.28125q-0.875 0.828125 -2.34375 1.296875q-1.453125 0.46875 -3.6875 0.46875q-4.21875 0 -5.984375 -1.453125q-1.765625 -1.4375 -1.765625 -3.65625q0 -0.21875 0.015625 -0.53125zm3.921875 -9.734375q0 2.640625 1.015625 3.875q1.03125 1.21875 2.53125 1.21875q1.609375 0 2.71875 -1.25q1.109375 -1.265625 1.109375 -3.734375q0 -2.578125 -1.0625 -3.828125q-1.0625 -1.25 -2.6875 -1.25q-1.578125 0 -2.609375 1.234375q-1.015625 1.21875 -1.015625 3.734375zm25.640625 3.359375l4.375 0.734375q-0.84375 2.40625 -2.671875 3.671875q-1.8125 1.25 -4.546875 1.25q-4.328125 0 -6.40625 -2.828125q-1.640625 -2.265625 -1.640625 -5.71875q0 -4.125 2.15625 -6.453123q2.15625 -2.34375 5.453125 -2.34375q3.703125 0 5.84375 2.453123q2.140625 2.4375 2.046875 7.484375l-11.0 0q0.046875 1.953125 1.0625 3.046875q1.015625 1.078125 2.53125 1.078125q1.03125 0 1.734375 -0.5625q0.703125 -0.5625 1.0625 -1.8125zm0.25 -4.4375q-0.046875 -1.90625 -0.984375 -2.890625q-0.9375 -1.0 -2.28125 -1.0q-1.4375 0 -2.375 1.046875q-0.9375 1.046875 -0.921875 2.84375l6.5625 0zm6.390625 4.984375l4.40625 -0.671875q0.28125 1.28125 1.140625 1.953125q0.859375 0.65625 2.40625 0.65625q1.703125 0 2.5625 -0.625q0.578125 -0.4375 0.578125 -1.171875q0 -0.5 -0.3125 -0.828125q-0.328125 -0.3125 -1.46875 -0.578125q-5.3125 -1.171875 -6.734375 -2.140625q-1.96875 -1.34375 -1.96875 -3.734375q0 -2.15625 1.703125 -3.624998q1.703125 -1.46875 5.28125 -1.46875q3.40625 0 5.0625 1.109375q1.65625 1.109375 2.28125 3.281248l-4.140625 0.765625q-0.265625 -0.96875 -1.015625 -1.484375q-0.734375 -0.515625 -2.109375 -0.515625q-1.734375 0 -2.484375 0.484375q-0.5 0.34375 -0.5 0.890625q0 0.46875 0.4375 0.796875q0.59375 0.4375 4.09375 1.234375q3.515625 0.796875 4.90625 1.953125q1.375 1.171875 1.375 3.265625q0 2.28125 -1.90625 3.921875q-1.90625 1.640625 -5.640625 1.640625q-3.390625 0 -5.375 -1.375q-1.96875 -1.375 -2.578125 -3.734375z" fill-rule="nonzero"/><path fill="#000000" fill-opacity="0.0" d="m419.6378 14.776903l140.81888 0l0 40.188972l-140.81888 0z" fill-rule="evenodd"/><path fill="#000000" d="m437.266 46.59139l0 -22.906248l15.703125 0l0 3.875l-11.078125 0l0 5.421873l9.5625 0l0 3.875l-9.5625 0l0 9.734375l-4.625 0zm22.765625 -11.53125l-3.984375 -0.71875q0.671875 -2.406248 2.3125 -3.562498q1.640625 -1.15625 4.875 -1.15625q2.9375 0 4.375 0.703125q1.4375 0.6875 2.015625 1.7656231q0.59375 1.0625 0.59375 3.921875l-0.046875 5.125q0 2.1875 0.203125 3.234375q0.21875 1.03125 0.796875 2.21875l-4.34375 0q-0.171875 -0.4375 -0.421875 -1.296875q-0.109375 -0.390625 -0.15625 -0.515625q-1.125 1.09375 -2.40625 1.640625q-1.28125 0.546875 -2.734375 0.546875q-2.5625 0 -4.046875 -1.390625q-1.46875 -1.390625 -1.46875 -3.515625q0 -1.40625 0.671875 -2.5q0.671875 -1.109375 1.875 -1.6875q1.21875 -0.59375 3.5 -1.03125q3.078125 -0.578125 4.265625 -1.078125l0 -0.4375q0 -1.265625 -0.625 -1.796875q-0.625 -0.546875 -2.359375 -0.546875q-1.171875 0 -1.828125 0.46875q-0.65625 0.453125 -1.0625 1.609375zm5.875 3.5625q-0.84375 0.28125 -2.671875 0.671875q-1.828125 0.390625 -2.390625 0.765625q-0.859375 0.609375 -0.859375 1.546875q0 0.921875 0.6875 1.59375q0.6875 0.671875 1.75 0.671875q1.1875 0 2.265625 -0.78125q0.796875 -0.59375 1.046875 -1.453125q0.171875 -0.5625 0.171875 -2.140625l0 -0.875zm23.109375 -3.71875l-4.328125 0.78125q-0.21875 -1.296875 -1.0 -1.953125q-0.765625 -0.65625 -2.0 -0.65625q-1.640625 0 -2.625 1.140625q-0.96875 1.125 -0.96875 3.78125q0 2.953125 0.984375 4.171875q1.0 1.21875 2.671875 1.21875q1.25 0 2.046875 -0.703125q0.796875 -0.71875 1.125 -2.453125l4.3125 0.734375q-0.671875 2.96875 -2.578125 4.484375q-1.90625 1.515625 -5.109375 1.515625q-3.640625 0 -5.8125 -2.296875q-2.15625 -2.296875 -2.15625 -6.359375q0 -4.109375 2.171875 -6.390623q2.171875 -2.296875 5.875 -2.296875q3.03125 0 4.8125 1.3125q1.796875 1.2968731 2.578125 3.968748zm6.609375 0.15625l-3.984375 -0.71875q0.671875 -2.406248 2.3125 -3.562498q1.640625 -1.15625 4.875 -1.15625q2.9375 0 4.375 0.703125q1.4375 0.6875 2.015625 1.7656231q0.59375 1.0625 0.59375 3.921875l-0.046875 5.125q0 2.1875 0.203125 3.234375q0.21875 1.03125 0.796875 2.21875l-4.34375 0q-0.171875 -0.4375 -0.421875 -1.296875q-0.109375 -0.390625 -0.15625 -0.515625q-1.125 1.09375 -2.40625 1.640625q-1.28125 0.546875 -2.734375 0.546875q-2.5625 0 -4.046875 -1.390625q-1.46875 -1.390625 -1.46875 -3.515625q0 -1.40625 0.671875 -2.5q0.671875 -1.109375 1.875 -1.6875q1.21875 -0.59375 3.5 -1.03125q3.078125 -0.578125 4.265625 -1.078125l0 -0.4375q0 -1.265625 -0.625 -1.796875q-0.625 -0.546875 -2.359375 -0.546875q-1.171875 0 -1.828125 0.46875q-0.65625 0.453125 -1.0625 1.609375zm5.875 3.5625q-0.84375 0.28125 -2.671875 0.671875q-1.828125 0.390625 -2.390625 0.765625q-0.859375 0.609375 -0.859375 1.546875q0 0.921875 0.6875 1.59375q0.6875 0.671875 1.75 0.671875q1.1875 0 2.265625 -0.78125q0.796875 -0.59375 1.046875 -1.453125q0.171875 -0.5625 0.171875 -2.140625l0 -0.875zm23.859375 7.96875l-4.078125 0l0 -2.4375q-1.015625 1.421875 -2.40625 2.125q-1.375 0.6875 -2.78125 0.6875q-2.859375 0 -4.90625 -2.296875q-2.03125 -2.3125 -2.03125 -6.4375q0 -4.21875 1.984375 -6.406248q1.984375 -2.203125 5.015625 -2.203125q2.78125 0 4.8125 2.3125l0 -8.25l4.390625 0l0 22.906248zm-11.71875 -8.65625q0 2.65625 0.734375 3.84375q1.0625 1.71875 2.96875 1.71875q1.515625 0 2.578125 -1.28125q1.0625 -1.296875 1.0625 -3.859375q0 -2.859375 -1.03125 -4.109375q-1.03125 -1.265625 -2.640625 -1.265625q-1.5625 0 -2.625 1.25q-1.046875 1.234375 -1.046875 3.703125zm25.65625 3.375l4.375 0.734375q-0.84375 2.40625 -2.671875 3.671875q-1.8125 1.25 -4.546875 1.25q-4.328125 0 -6.40625 -2.828125q-1.640625 -2.265625 -1.640625 -5.71875q0 -4.125 2.15625 -6.453123q2.15625 -2.34375 5.453125 -2.34375q3.703125 0 5.84375 2.453123q2.140625 2.4375 2.046875 7.484375l-11.0 0q0.046875 1.953125 1.0625 3.046875q1.015625 1.078125 2.53125 1.078125q1.03125 0 1.734375 -0.5625q0.703125 -0.5625 1.0625 -1.8125zm0.25 -4.4375q-0.046875 -1.90625 -0.984375 -2.890625q-0.9375 -1.0 -2.28125 -1.0q-1.4375 0 -2.375 1.046875q-0.9375 1.046875 -0.921875 2.84375l6.5625 0z" fill-rule="nonzero"/><path fill="#000000" fill-opacity="0.0" d="m613.65094 14.776903l284.66138 0l0 40.188972l-284.66138 0z" fill-rule="evenodd"/><path fill="#000000" d="m631.0363 46.59139l0 -22.906248l4.625 0l0 22.906248l-4.625 0zm8.671875 -16.593748l4.046875 0l0 2.265623q2.171875 -2.640623 5.171875 -2.640623q1.59375 0 2.765625 0.65625q1.171875 0.65625 1.921875 1.9843731q1.09375 -1.3281231 2.359375 -1.9843731q1.265625 -0.65625 2.703125 -0.65625q1.828125 0 3.09375 0.75q1.265625 0.734375 1.890625 2.171873q0.453125 1.0625 0.453125 3.4375l0 10.609375l-4.390625 0l0 -9.484375q0 -2.46875 -0.453125 -3.1875q-0.609375 -0.9375 -1.875 -0.9375q-0.921875 0 -1.734375 0.5625q-0.8125 0.5625 -1.171875 1.65625q-0.359375 1.078125 -0.359375 3.421875l0 7.96875l-4.390625 0l0 -9.09375q0 -2.421875 -0.234375 -3.125q-0.234375 -0.703125 -0.734375 -1.046875q-0.484375 -0.34375 -1.328125 -0.34375q-1.015625 0 -1.828125 0.546875q-0.8125 0.546875 -1.171875 1.578125q-0.34375 1.03125 -0.34375 3.421875l0 8.0625l-4.390625 0l0 -16.593748zm28.65625 0l4.09375 0l0 2.437498q0.796875 -1.2499981 2.15625 -2.031248q1.359375 -0.78125 3.015625 -0.78125q2.890625 0 4.90625 2.265625q2.015625 2.265623 2.015625 6.312498q0 4.15625 -2.03125 6.46875q-2.03125 2.296875 -4.921875 2.296875q-1.375 0 -2.5 -0.546875q-1.109375 -0.546875 -2.34375 -1.875l0 8.359375l-4.390625 0l0 -22.906248zm4.34375 8.015623q0 2.796875 1.109375 4.140625q1.109375 1.328125 2.703125 1.328125q1.53125 0 2.546875 -1.21875q1.015625 -1.234375 1.015625 -4.03125q0 -2.609375 -1.046875 -3.875q-1.046875 -1.265625 -2.59375 -1.265625q-1.609375 0 -2.671875 1.25q-1.0625 1.234375 -1.0625 3.671875zm15.328125 8.578125l0 -22.906248l4.390625 0l0 22.906248l-4.390625 0zm18.5 -5.28125l4.375 0.734375q-0.84375 2.40625 -2.671875 3.671875q-1.8125 1.25 -4.546875 1.25q-4.328125 0 -6.40625 -2.828125q-1.640625 -2.265625 -1.640625 -5.71875q0 -4.125 2.15625 -6.453123q2.15625 -2.34375 5.453125 -2.34375q3.703125 0 5.84375 2.453123q2.140625 2.4375 2.046875 7.484375l-11.0 0q0.046875 1.953125 1.0625 3.046875q1.015625 1.078125 2.53125 1.078125q1.03125 0 1.734375 -0.5625q0.703125 -0.5625 1.0625 -1.8125zm0.25 -4.4375q-0.046875 -1.90625 -0.984375 -2.890625q-0.9375 -1.0 -2.28125 -1.0q-1.4375 0 -2.375 1.046875q-0.9375 1.046875 -0.921875 2.84375l6.5625 0zm7.609375 -6.874998l4.046875 0l0 2.265623q2.171875 -2.640623 5.171875 -2.640623q1.59375 0 2.765625 0.65625q1.171875 0.65625 1.921875 1.9843731q1.09375 -1.3281231 2.359375 -1.9843731q1.265625 -0.65625 2.703125 -0.65625q1.828125 0 3.09375 0.75q1.265625 0.734375 1.890625 2.171873q0.453125 1.0625 0.453125 3.4375l0 10.609375l-4.390625 0l0 -9.484375q0 -2.46875 -0.453125 -3.1875q-0.609375 -0.9375 -1.875 -0.9375q-0.921875 0 -1.734375 0.5625q-0.8125 0.5625 -1.171875 1.65625q-0.359375 1.078125 -0.359375 3.421875l0 7.96875l-4.390625 0l0 -9.09375q0 -2.421875 -0.234375 -3.125q-0.234375 -0.703125 -0.734375 -1.046875q-0.484375 -0.34375 -1.328125 -0.34375q-1.015625 0 -1.828125 0.546875q-0.8125 0.546875 -1.171875 1.578125q-0.34375 1.03125 -0.34375 3.421875l0 8.0625l-4.390625 0l0 -16.593748zm38.390625 11.312498l4.375 0.734375q-0.84375 2.40625 -2.671875 3.671875q-1.8125 1.25 -4.546875 1.25q-4.328125 0 -6.40625 -2.828125q-1.640625 -2.265625 -1.640625 -5.71875q0 -4.125 2.15625 -6.453123q2.15625 -2.34375 5.453125 -2.34375q3.703125 0 5.84375 2.453123q2.140625 2.4375 2.046875 7.484375l-11.0 0q0.046875 1.953125 1.0625 3.046875q1.015625 1.078125 2.53125 1.078125q1.03125 0 1.734375 -0.5625q0.703125 -0.5625 1.0625 -1.8125zm0.25 -4.4375q-0.046875 -1.90625 -0.984375 -2.890625q-0.9375 -1.0 -2.28125 -1.0q-1.4375 0 -2.375 1.046875q-0.9375 1.046875 -0.921875 2.84375l6.5625 0zm23.03125 9.71875l-4.390625 0l0 -8.46875q0 -2.6875 -0.28125 -3.46875q-0.28125 -0.796875 -0.921875 -1.234375q-0.625 -0.4375 -1.515625 -0.4375q-1.140625 0 -2.046875 0.625q-0.90625 0.625 -1.25 1.65625q-0.328125 1.03125 -0.328125 3.8125l0 7.515625l-4.390625 0l0 -16.593748l4.078125 0l0 2.437498q2.171875 -2.812498 5.46875 -2.812498q1.453125 0 2.65625 0.53125q1.203125 0.515625 1.8125 1.328125q0.625 0.8124981 0.859375 1.8437481q0.25 1.03125 0.25 2.953125l0 10.3125zm12.0625 -16.593748l0 3.499998l-3.0 0l0 6.6875q0 2.03125 0.078125 2.375q0.09375 0.328125 0.390625 0.546875q0.3125 0.21875 0.75 0.21875q0.609375 0 1.765625 -0.421875l0.375 3.40625q-1.53125 0.65625 -3.46875 0.65625q-1.1875 0 -2.140625 -0.390625q-0.953125 -0.40625 -1.40625 -1.03125q-0.4375 -0.640625 -0.609375 -1.71875q-0.140625 -0.765625 -0.140625 -3.09375l0 -7.234375l-2.015625 0l0 -3.499998l2.015625 0l0 -3.296875l4.40625 -2.5625l0 5.859375l3.0 0zm6.328125 5.062498l-3.984375 -0.71875q0.671875 -2.406248 2.3125 -3.562498q1.640625 -1.15625 4.875 -1.15625q2.9375 0 4.375 0.703125q1.4375 0.6875 2.015625 1.7656231q0.59375 1.0625 0.59375 3.921875l-0.046875 5.125q0 2.1875 0.203125 3.234375q0.21875 1.03125 0.796875 2.21875l-4.34375 0q-0.171875 -0.4375 -0.421875 -1.296875q-0.109375 -0.390625 -0.15625 -0.515625q-1.125 1.09375 -2.40625 1.640625q-1.28125 0.546875 -2.734375 0.546875q-2.5625 0 -4.046875 -1.390625q-1.46875 -1.390625 -1.46875 -3.515625q0 -1.40625 0.671875 -2.5q0.671875 -1.109375 1.875 -1.6875q1.21875 -0.59375 3.5 -1.03125q3.078125 -0.578125 4.265625 -1.078125l0 -0.4375q0 -1.265625 -0.625 -1.796875q-0.625 -0.546875 -2.359375 -0.546875q-1.171875 0 -1.828125 0.46875q-0.65625 0.453125 -1.0625 1.609375zm5.875 3.5625q-0.84375 0.28125 -2.671875 0.671875q-1.828125 0.390625 -2.390625 0.765625q-0.859375 0.609375 -0.859375 1.546875q0 0.921875 0.6875 1.59375q0.6875 0.671875 1.75 0.671875q1.1875 0 2.265625 -0.78125q0.796875 -0.59375 1.046875 -1.453125q0.171875 -0.5625 0.171875 -2.140625l0 -0.875zm16.25 -8.624998l0 3.499998l-3.0 0l0 6.6875q0 2.03125 0.078125 2.375q0.09375 0.328125 0.390625 0.546875q0.3125 0.21875 0.75 0.21875q0.609375 0 1.765625 -0.421875l0.375 3.40625q-1.53125 0.65625 -3.46875 0.65625q-1.1875 0 -2.140625 -0.390625q-0.953125 -0.40625 -1.40625 -1.03125q-0.4375 -0.640625 -0.609375 -1.71875q-0.140625 -0.765625 -0.140625 -3.09375l0 -7.234375l-2.015625 0l0 -3.499998l2.015625 0l0 -3.296875l4.40625 -2.5625l0 5.859375l3.0 0zm3.046875 -2.25l0 -4.0625l4.390625 0l0 4.0625l-4.390625 0zm0 18.843748l0 -16.593748l4.390625 0l0 16.593748l-4.390625 0zm7.875 -8.53125q0 -2.1875 1.078125 -4.234375q1.078125 -2.046873 3.046875 -3.124998q1.984375 -1.078125 4.421875 -1.078125q3.765625 0 6.171875 2.453123q2.40625 2.4375 2.40625 6.171875q0 3.765625 -2.4375 6.25q-2.421875 2.46875 -6.109375 2.46875q-2.28125 0 -4.359375 -1.03125q-2.0625 -1.03125 -3.140625 -3.015625q-1.078125 -2.0 -1.078125 -4.859375zm4.5 0.234375q0 2.46875 1.171875 3.78125q1.171875 1.3125 2.890625 1.3125q1.71875 0 2.875 -1.3125q1.171875 -1.3125 1.171875 -3.8125q0 -2.4375 -1.171875 -3.75q-1.15625 -1.3125 -2.875 -1.3125q-1.71875 0 -2.890625 1.3125q-1.171875 1.3125 -1.171875 3.78125zm31.15625 8.296875l-4.390625 0l0 -8.46875q0 -2.6875 -0.28125 -3.46875q-0.28125 -0.796875 -0.921875 -1.234375q-0.625 -0.4375 -1.515625 -0.4375q-1.140625 0 -2.046875 0.625q-0.90625 0.625 -1.25 1.65625q-0.328125 1.03125 -0.328125 3.8125l0 7.515625l-4.390625 0l0 -16.593748l4.078125 0l0 2.437498q2.171875 -2.812498 5.46875 -2.812498q1.453125 0 2.65625 0.53125q1.203125 0.515625 1.8125 1.328125q0.625 0.8124981 0.859375 1.8437481q0.25 1.03125 0.25 2.953125l0 10.3125zm2.90625 -4.734375l4.40625 -0.671875q0.28125 1.28125 1.140625 1.953125q0.859375 0.65625 2.40625 0.65625q1.703125 0 2.5625 -0.625q0.578125 -0.4375 0.578125 -1.171875q0 -0.5 -0.3125 -0.828125q-0.328125 -0.3125 -1.46875 -0.578125q-5.3125 -1.171875 -6.734375 -2.140625q-1.96875 -1.34375 -1.96875 -3.734375q0 -2.15625 1.703125 -3.624998q1.703125 -1.46875 5.28125 -1.46875q3.40625 0 5.0625 1.109375q1.65625 1.109375 2.28125 3.281248l-4.140625 0.765625q-0.265625 -0.96875 -1.015625 -1.484375q-0.734375 -0.515625 -2.109375 -0.515625q-1.734375 0 -2.484375 0.484375q-0.5 0.34375 -0.5 0.890625q0 0.46875 0.4375 0.796875q0.59375 0.4375 4.09375 1.234375q3.515625 0.796875 4.90625 1.953125q1.375 1.171875 1.375 3.265625q0 2.28125 -1.90625 3.921875q-1.90625 1.640625 -5.640625 1.640625q-3.390625 0 -5.375 -1.375q-1.96875 -1.375 -2.578125 -3.734375z" fill-rule="nonzero"/><path fill="#000000" fill-opacity="0.0" d="m318.90204 449.13647l340.18896 0l0 168.8504l-340.18896 0z" fill-rule="evenodd"/><path fill="#000000" d="m401.57465 522.20355l0 4.078125l-15.390625 0q0.25 -2.3125 1.5 -4.375q1.25 -2.078125 4.9375 -5.5q2.96875 -2.765625 3.640625 -3.75q0.90625 -1.359375 0.90625 -2.6875q0 -1.46875 -0.796875 -2.25q-0.78125 -0.796875 -2.171875 -0.796875q-1.375 0 -2.1875 0.828125q-0.8125 0.828125 -0.9375 2.75l-4.375 -0.4375q0.390625 -3.625 2.453125 -5.203125q2.0625 -1.578125 5.15625 -1.578125q3.390625 0 5.328125 1.828125q1.9375 1.828125 1.9375 4.546875q0 1.546875 -0.5625 2.953125q-0.546875 1.390625 -1.75 2.921875q-0.796875 1.015625 -2.875 2.921875q-2.078125 1.90625 -2.640625 2.53125q-0.546875 0.625 -0.890625 1.21875l8.71875 0zm19.0 4.078125l-4.390625 0l0 -8.46875q0 -2.6875 -0.28125 -3.46875q-0.28125 -0.796875 -0.921875 -1.234375q-0.625 -0.4375 -1.515625 -0.4375q-1.140625 0 -2.046875 0.625q-0.90625 0.625 -1.25 1.65625q-0.328125 1.03125 -0.328125 3.8125l0 7.515625l-4.390625 0l0 -16.59375l4.078125 0l0 2.4375q2.171875 -2.8125 5.46875 -2.8125q1.453125 0 2.65625 0.53125q1.203125 0.515625 1.8125 1.328125q0.625 0.8125 0.859375 1.84375q0.25 1.03125 0.25 2.953125l0 10.3125zm9.484375 -3.296875l0 -5.953125l-6.0 0l0 -4.109375l6.0 0l0 -5.953125l4.0 0l0 5.953125l6.015625 0l0 4.109375l-6.015625 0l0 5.953125l-4.0 0zm23.953125 3.296875l-4.390625 0l0 -16.546875q-2.40625 2.25 -5.671875 3.328125l0 -3.984375q1.71875 -0.5625 3.734375 -2.125q2.015625 -1.578125 2.765625 -3.671875l3.5625 0l0 23.0zm19.671875 -11.53125l-3.984375 -0.71875q0.671875 -2.40625 2.3125 -3.5625q1.640625 -1.15625 4.875 -1.15625q2.9375 0 4.375 0.703125q1.4375 0.6875 2.015625 1.765625q0.59375 1.0625 0.59375 3.921875l-0.046875 5.125q0 2.1875 0.203125 3.234375q0.21875 1.03125 0.796875 2.21875l-4.34375 0q-0.171875 -0.4375 -0.421875 -1.296875q-0.109375 -0.390625 -0.15625 -0.515625q-1.125 1.09375 -2.40625 1.640625q-1.28125 0.546875 -2.734375 0.546875q-2.5625 0 -4.046875 -1.390625q-1.46875 -1.390625 -1.46875 -3.515625q0 -1.40625 0.671875 -2.5q0.671875 -1.109375 1.875 -1.6875q1.21875 -0.59375 3.5 -1.03125q3.078125 -0.578125 4.265625 -1.078125l0 -0.4375q0 -1.265625 -0.625 -1.796875q-0.625 -0.546875 -2.359375 -0.546875q-1.171875 0 -1.828125 0.46875q-0.65625 0.453125 -1.0625 1.609375zm5.875 3.5625q-0.84375 0.28125 -2.671875 0.671875q-1.828125 0.390625 -2.390625 0.765625q-0.859375 0.609375 -0.859375 1.546875q0 0.921875 0.6875 1.59375q0.6875 0.671875 1.75 0.671875q1.1875 0 2.265625 -0.78125q0.796875 -0.59375 1.046875 -1.453125q0.171875 -0.5625 0.171875 -2.140625l0 -0.875zm12.84375 7.96875l-4.390625 0l0 -16.59375l4.078125 0l0 2.359375q1.046875 -1.671875 1.875 -2.203125q0.84375 -0.53125 1.90625 -0.53125q1.5 0 2.890625 0.828125l-1.359375 3.828125q-1.109375 -0.71875 -2.0625 -0.71875q-0.921875 0 -1.5625 0.515625q-0.640625 0.5 -1.015625 1.828125q-0.359375 1.328125 -0.359375 5.5625l0 5.125zm15.859375 -16.59375l0 3.5l-3.0 0l0 6.6875q0 2.03125 0.078125 2.375q0.09375 0.328125 0.390625 0.546875q0.3125 0.21875 0.75 0.21875q0.609375 0 1.765625 -0.421875l0.375 3.40625q-1.53125 0.65625 -3.46875 0.65625q-1.1875 0 -2.140625 -0.390625q-0.953125 -0.40625 -1.40625 -1.03125q-0.4375 -0.640625 -0.609375 -1.71875q-0.140625 -0.765625 -0.140625 -3.09375l0 -7.234375l-2.015625 0l0 -3.5l2.015625 0l0 -3.296875l4.40625 -2.5625l0 5.859375l3.0 0zm3.046875 -2.25l0 -4.0625l4.390625 0l0 4.0625l-4.390625 0zm0 18.84375l0 -16.59375l4.390625 0l0 16.59375l-4.390625 0zm6.96875 -16.59375l2.4375 0l0 -1.25q0 -2.09375 0.4375 -3.125q0.453125 -1.03125 1.640625 -1.671875q1.203125 -0.65625 3.03125 -0.65625q1.875 0 3.671875 0.5625l-0.59375 3.0625q-1.046875 -0.25 -2.015625 -0.25q-0.953125 0 -1.375 0.453125q-0.40625 0.4375 -0.40625 1.703125l0 1.171875l3.28125 0l0 3.453125l-3.28125 0l0 13.140625l-4.390625 0l0 -13.140625l-2.4375 0l0 -3.453125zm15.859375 5.0625l-3.984375 -0.71875q0.671875 -2.40625 2.3125 -3.5625q1.640625 -1.15625 4.875 -1.15625q2.9375 0 4.375 0.703125q1.4375 0.6875 2.015625 1.765625q0.59375 1.0625 0.59375 3.921875l-0.046875 5.125q0 2.1875 0.203125 3.234375q0.21875 1.03125 0.796875 2.21875l-4.34375 0q-0.171875 -0.4375 -0.421875 -1.296875q-0.109375 -0.390625 -0.15625 -0.515625q-1.125 1.09375 -2.40625 1.640625q-1.28125 0.546875 -2.734375 0.546875q-2.5625 0 -4.046875 -1.390625q-1.46875 -1.390625 -1.46875 -3.515625q0 -1.40625 0.671875 -2.5q0.671875 -1.109375 1.875 -1.6875q1.21875 -0.59375 3.5 -1.03125q3.078125 -0.578125 4.265625 -1.078125l0 -0.4375q0 -1.265625 -0.625 -1.796875q-0.625 -0.546875 -2.359375 -0.546875q-1.171875 0 -1.828125 0.46875q-0.65625 0.453125 -1.0625 1.609375zm5.875 3.5625q-0.84375 0.28125 -2.671875 0.671875q-1.828125 0.390625 -2.390625 0.765625q-0.859375 0.609375 -0.859375 1.546875q0 0.921875 0.6875 1.59375q0.6875 0.671875 1.75 0.671875q1.1875 0 2.265625 -0.78125q0.796875 -0.59375 1.046875 -1.453125q0.171875 -0.5625 0.171875 -2.140625l0 -0.875zm23.109375 -3.71875l-4.328125 0.78125q-0.21875 -1.296875 -1.0 -1.953125q-0.765625 -0.65625 -2.0 -0.65625q-1.640625 0 -2.625 1.140625q-0.96875 1.125 -0.96875 3.78125q0 2.953125 0.984375 4.171875q1.0 1.21875 2.671875 1.21875q1.25 0 2.046875 -0.703125q0.796875 -0.71875 1.125 -2.453125l4.3125 0.734375q-0.671875 2.96875 -2.578125 4.484375q-1.90625 1.515625 -5.109375 1.515625q-3.640625 0 -5.8125 -2.296875q-2.15625 -2.296875 -2.15625 -6.359375q0 -4.109375 2.171875 -6.390625q2.171875 -2.296875 5.875 -2.296875q3.03125 0 4.8125 1.3125q1.796875 1.296875 2.578125 3.96875zm10.9375 -4.90625l0 3.5l-3.0 0l0 6.6875q0 2.03125 0.078125 2.375q0.09375 0.328125 0.390625 0.546875q0.3125 0.21875 0.75 0.21875q0.609375 0 1.765625 -0.421875l0.375 3.40625q-1.53125 0.65625 -3.46875 0.65625q-1.1875 0 -2.140625 -0.390625q-0.953125 -0.40625 -1.40625 -1.03125q-0.4375 -0.640625 -0.609375 -1.71875q-0.140625 -0.765625 -0.140625 -3.09375l0 -7.234375l-2.015625 0l0 -3.5l2.015625 0l0 -3.296875l4.40625 -2.5625l0 5.859375l3.0 0zm1.5 11.859375l4.40625 -0.671875q0.28125 1.28125 1.140625 1.953125q0.859375 0.65625 2.40625 0.65625q1.703125 0 2.5625 -0.625q0.578125 -0.4375 0.578125 -1.171875q0 -0.5 -0.3125 -0.828125q-0.328125 -0.3125 -1.46875 -0.578125q-5.3125 -1.171875 -6.734375 -2.140625q-1.96875 -1.34375 -1.96875 -3.734375q0 -2.15625 1.703125 -3.625q1.703125 -1.46875 5.28125 -1.46875q3.40625 0 5.0625 1.109375q1.65625 1.109375 2.28125 3.28125l-4.140625 0.765625q-0.265625 -0.96875 -1.015625 -1.484375q-0.734375 -0.515625 -2.109375 -0.515625q-1.734375 0 -2.484375 0.484375q-0.5 0.34375 -0.5 0.890625q0 0.46875 0.4375 0.796875q0.59375 0.4375 4.09375 1.234375q3.515625 0.796875 4.90625 1.953125q1.375 1.171875 1.375 3.265625q0 2.28125 -1.90625 3.921875q-1.90625 1.640625 -5.640625 1.640625q-3.390625 0 -5.375 -1.375q-1.96875 -1.375 -2.578125 -3.734375z" fill-rule="nonzero"/><path fill="#000000" d="m365.0434 564.2817l-4.390625 0l0 -8.46875q0 -2.6875 -0.28125 -3.46875q-0.28125 -0.796875 -0.921875 -1.234375q-0.625 -0.4375 -1.515625 -0.4375q-1.140625 0 -2.046875 0.625q-0.90625 0.625 -1.25 1.65625q-0.328125 1.03125 -0.328125 3.8125l0 7.515625l-4.390625 0l0 -16.59375l4.078125 0l0 2.4375q2.171875 -2.8125 5.46875 -2.8125q1.453125 0 2.65625 0.53125q1.203125 0.515625 1.8125 1.328125q0.625 0.8125 0.859375 1.84375q0.25 1.03125 0.25 2.953125l0 10.3125zm12.03125 -13.828125l0 2.46875l-9.484375 0q0.171875 -1.328125 0.84375 -2.375q0.6875 -1.046875 3.046875 -2.90625q1.78125 -1.390625 2.140625 -1.84375q0.484375 -0.59375 0.484375 -1.203125q0 -0.578125 -0.390625 -0.921875q-0.390625 -0.34375 -1.1875 -0.34375q-0.796875 0 -1.1875 0.390625q-0.390625 0.375 -0.484375 1.40625l-2.953125 -0.25q0.234375 -1.828125 1.171875 -2.671875q1.25 -1.109375 3.53125 -1.109375q2.171875 0 3.3125 1.0q1.15625 1.0 1.15625 2.359375q0 0.84375 -0.359375 1.609375q-0.359375 0.75 -1.140625 1.5625q-0.40625 0.40625 -2.109375 1.75q-0.90625 0.703125 -1.296875 1.078125l4.90625 0zm19.578125 -2.765625l0 3.5l-3.0 0l0 6.6875q0 2.03125 0.078125 2.375q0.09375 0.328125 0.390625 0.546875q0.3125 0.21875 0.75 0.21875q0.609375 0 1.765625 -0.421875l0.375 3.40625q-1.53125 0.65625 -3.46875 0.65625q-1.1875 0 -2.140625 -0.390625q-0.953125 -0.40625 -1.40625 -1.03125q-0.4375 -0.640625 -0.609375 -1.71875q-0.140625 -0.765625 -0.140625 -3.09375l0 -7.234375l-2.015625 0l0 -3.5l2.015625 0l0 -3.296875l4.40625 -2.5625l0 5.859375l3.0 0zm7.25 16.59375l-4.390625 0l0 -16.59375l4.078125 0l0 2.359375q1.046875 -1.671875 1.875 -2.203125q0.84375 -0.53125 1.90625 -0.53125q1.5 0 2.890625 0.828125l-1.359375 3.828125q-1.109375 -0.71875 -2.0625 -0.71875q-0.921875 0 -1.5625 0.515625q-0.640625 0.5 -1.015625 1.828125q-0.359375 1.328125 -0.359375 5.5625l0 5.125zm11.53125 -11.53125l-3.984375 -0.71875q0.671875 -2.40625 2.3125 -3.5625q1.640625 -1.15625 4.875 -1.15625q2.9375 0 4.375 0.703125q1.4375 0.6875 2.015625 1.765625q0.59375 1.0625 0.59375 3.921875l-0.046875 5.125q0 2.1875 0.203125 3.234375q0.21875 1.03125 0.796875 2.21875l-4.34375 0q-0.171875 -0.4375 -0.421875 -1.296875q-0.109375 -0.390625 -0.15625 -0.515625q-1.125 1.09375 -2.40625 1.640625q-1.28125 0.546875 -2.734375 0.546875q-2.5625 0 -4.046875 -1.390625q-1.46875 -1.390625 -1.46875 -3.515625q0 -1.40625 0.671875 -2.5q0.671875 -1.109375 1.875 -1.6875q1.21875 -0.59375 3.5 -1.03125q3.078125 -0.578125 4.265625 -1.078125l0 -0.4375q0 -1.265625 -0.625 -1.796875q-0.625 -0.546875 -2.359375 -0.546875q-1.171875 0 -1.828125 0.46875q-0.65625 0.453125 -1.0625 1.609375zm5.875 3.5625q-0.84375 0.28125 -2.671875 0.671875q-1.828125 0.390625 -2.390625 0.765625q-0.859375 0.609375 -0.859375 1.546875q0 0.921875 0.6875 1.59375q0.6875 0.671875 1.75 0.671875q1.1875 0 2.265625 -0.78125q0.796875 -0.59375 1.046875 -1.453125q0.171875 -0.5625 0.171875 -2.140625l0 -0.875zm23.734375 7.96875l-4.390625 0l0 -8.46875q0 -2.6875 -0.28125 -3.46875q-0.28125 -0.796875 -0.921875 -1.234375q-0.625 -0.4375 -1.515625 -0.4375q-1.140625 0 -2.046875 0.625q-0.90625 0.625 -1.25 1.65625q-0.328125 1.03125 -0.328125 3.8125l0 7.515625l-4.390625 0l0 -16.59375l4.078125 0l0 2.4375q2.171875 -2.8125 5.46875 -2.8125q1.453125 0 2.65625 0.53125q1.203125 0.515625 1.8125 1.328125q0.625 0.8125 0.859375 1.84375q0.25 1.03125 0.25 2.953125l0 10.3125zm2.90625 -4.734375l4.40625 -0.671875q0.28125 1.28125 1.140625 1.953125q0.859375 0.65625 2.40625 0.65625q1.703125 0 2.5625 -0.625q0.578125 -0.4375 0.578125 -1.171875q0 -0.5 -0.3125 -0.828125q-0.328125 -0.3125 -1.46875 -0.578125q-5.3125 -1.171875 -6.734375 -2.140625q-1.96875 -1.34375 -1.96875 -3.734375q0 -2.15625 1.703125 -3.625q1.703125 -1.46875 5.28125 -1.46875q3.40625 0 5.0625 1.109375q1.65625 1.109375 2.28125 3.28125l-4.140625 0.765625q-0.265625 -0.96875 -1.015625 -1.484375q-0.734375 -0.515625 -2.109375 -0.515625q-1.734375 0 -2.484375 0.484375q-0.5 0.34375 -0.5 0.890625q0 0.46875 0.4375 0.796875q0.59375 0.4375 4.09375 1.234375q3.515625 0.796875 4.90625 1.953125q1.375 1.171875 1.375 3.265625q0 2.28125 -1.90625 3.921875q-1.90625 1.640625 -5.640625 1.640625q-3.390625 0 -5.375 -1.375q-1.96875 -1.375 -2.578125 -3.734375zm17.421875 -11.859375l2.4375 0l0 -1.25q0 -2.09375 0.4375 -3.125q0.453125 -1.03125 1.640625 -1.671875q1.203125 -0.65625 3.03125 -0.65625q1.875 0 3.671875 0.5625l-0.59375 3.0625q-1.046875 -0.25 -2.015625 -0.25q-0.953125 0 -1.375 0.453125q-0.40625 0.4375 -0.40625 1.703125l0 1.171875l3.28125 0l0 3.453125l-3.28125 0l0 13.140625l-4.390625 0l0 -13.140625l-2.4375 0l0 -3.453125zm11.5625 8.0625q0 -2.1875 1.078125 -4.234375q1.078125 -2.046875 3.046875 -3.125q1.984375 -1.078125 4.421875 -1.078125q3.765625 0 6.171875 2.453125q2.40625 2.4375 2.40625 6.171875q0 3.765625 -2.4375 6.25q-2.421875 2.46875 -6.109375 2.46875q-2.28125 0 -4.359375 -1.03125q-2.0625 -1.03125 -3.140625 -3.015625q-1.078125 -2.0 -1.078125 -4.859375zm4.5 0.234375q0 2.46875 1.171875 3.78125q1.171875 1.3125 2.890625 1.3125q1.71875 0 2.875 -1.3125q1.171875 -1.3125 1.171875 -3.8125q0 -2.4375 -1.171875 -3.75q-1.15625 -1.3125 -2.875 -1.3125q-1.71875 0 -2.890625 1.3125q-1.171875 1.3125 -1.171875 3.78125zm20.265625 8.296875l-4.390625 0l0 -16.59375l4.078125 0l0 2.359375q1.046875 -1.671875 1.875 -2.203125q0.84375 -0.53125 1.90625 -0.53125q1.5 0 2.890625 0.828125l-1.359375 3.828125q-1.109375 -0.71875 -2.0625 -0.71875q-0.921875 0 -1.5625 0.515625q-0.640625 0.5 -1.015625 1.828125q-0.359375 1.328125 -0.359375 5.5625l0 5.125zm7.921875 -16.59375l4.046875 0l0 2.265625q2.171875 -2.640625 5.171875 -2.640625q1.59375 0 2.765625 0.65625q1.171875 0.65625 1.921875 1.984375q1.09375 -1.328125 2.359375 -1.984375q1.265625 -0.65625 2.703125 -0.65625q1.828125 0 3.09375 0.75q1.265625 0.734375 1.890625 2.171875q0.453125 1.0625 0.453125 3.4375l0 10.609375l-4.390625 0l0 -9.484375q0 -2.46875 -0.453125 -3.1875q-0.609375 -0.9375 -1.875 -0.9375q-0.921875 0 -1.734375 0.5625q-0.8125 0.5625 -1.171875 1.65625q-0.359375 1.078125 -0.359375 3.421875l0 7.96875l-4.390625 0l0 -9.09375q0 -2.421875 -0.234375 -3.125q-0.234375 -0.703125 -0.734375 -1.046875q-0.484375 -0.34375 -1.328125 -0.34375q-1.015625 0 -1.828125 0.546875q-0.8125 0.546875 -1.171875 1.578125q-0.34375 1.03125 -0.34375 3.421875l0 8.0625l-4.390625 0l0 -16.59375zm32.0625 5.0625l-3.984375 -0.71875q0.671875 -2.40625 2.3125 -3.5625q1.640625 -1.15625 4.875 -1.15625q2.9375 0 4.375 0.703125q1.4375 0.6875 2.015625 1.765625q0.59375 1.0625 0.59375 3.921875l-0.046875 5.125q0 2.1875 0.203125 3.234375q0.21875 1.03125 0.796875 2.21875l-4.34375 0q-0.171875 -0.4375 -0.421875 -1.296875q-0.109375 -0.390625 -0.15625 -0.515625q-1.125 1.09375 -2.40625 1.640625q-1.28125 0.546875 -2.734375 0.546875q-2.5625 0 -4.046875 -1.390625q-1.46875 -1.390625 -1.46875 -3.515625q0 -1.40625 0.671875 -2.5q0.671875 -1.109375 1.875 -1.6875q1.21875 -0.59375 3.5 -1.03125q3.078125 -0.578125 4.265625 -1.078125l0 -0.4375q0 -1.265625 -0.625 -1.796875q-0.625 -0.546875 -2.359375 -0.546875q-1.171875 0 -1.828125 0.46875q-0.65625 0.453125 -1.0625 1.609375zm5.875 3.5625q-0.84375 0.28125 -2.671875 0.671875q-1.828125 0.390625 -2.390625 0.765625q-0.859375 0.609375 -0.859375 1.546875q0 0.921875 0.6875 1.59375q0.6875 0.671875 1.75 0.671875q1.1875 0 2.265625 -0.78125q0.796875 -0.59375 1.046875 -1.453125q0.171875 -0.5625 0.171875 -2.140625l0 -0.875zm16.25 -8.625l0 3.5l-3.0 0l0 6.6875q0 2.03125 0.078125 2.375q0.09375 0.328125 0.390625 0.546875q0.3125 0.21875 0.75 0.21875q0.609375 0 1.765625 -0.421875l0.375 3.40625q-1.53125 0.65625 -3.46875 0.65625q-1.1875 0 -2.140625 -0.390625q-0.953125 -0.40625 -1.40625 -1.03125q-0.4375 -0.640625 -0.609375 -1.71875q-0.140625 -0.765625 -0.140625 -3.09375l0 -7.234375l-2.015625 0l0 -3.5l2.015625 0l0 -3.296875l4.40625 -2.5625l0 5.859375l3.0 0zm3.046875 -2.25l0 -4.0625l4.390625 0l0 4.0625l-4.390625 0zm0 18.84375l0 -16.59375l4.390625 0l0 16.59375l-4.390625 0zm7.875 -8.53125q0 -2.1875 1.078125 -4.234375q1.078125 -2.046875 3.046875 -3.125q1.984375 -1.078125 4.421875 -1.078125q3.765625 0 6.171875 2.453125q2.40625 2.4375 2.40625 6.171875q0 3.765625 -2.4375 6.25q-2.421875 2.46875 -6.109375 2.46875q-2.28125 0 -4.359375 -1.03125q-2.0625 -1.03125 -3.140625 -3.015625q-1.078125 -2.0 -1.078125 -4.859375zm4.5 0.234375q0 2.46875 1.171875 3.78125q1.171875 1.3125 2.890625 1.3125q1.71875 0 2.875 -1.3125q1.171875 -1.3125 1.171875 -3.8125q0 -2.4375 -1.171875 -3.75q-1.15625 -1.3125 -2.875 -1.3125q-1.71875 0 -2.890625 1.3125q-1.171875 1.3125 -1.171875 3.78125zm31.15625 8.296875l-4.390625 0l0 -8.46875q0 -2.6875 -0.28125 -3.46875q-0.28125 -0.796875 -0.921875 -1.234375q-0.625 -0.4375 -1.515625 -0.4375q-1.140625 0 -2.046875 0.625q-0.90625 0.625 -1.25 1.65625q-0.328125 1.03125 -0.328125 3.8125l0 7.515625l-4.390625 0l0 -16.59375l4.078125 0l0 2.4375q2.171875 -2.8125 5.46875 -2.8125q1.453125 0 2.65625 0.53125q1.203125 0.515625 1.8125 1.328125q0.625 0.8125 0.859375 1.84375q0.25 1.03125 0.25 2.953125l0 10.3125zm2.90625 -4.734375l4.40625 -0.671875q0.28125 1.28125 1.140625 1.953125q0.859375 0.65625 2.40625 0.65625q1.703125 0 2.5625 -0.625q0.578125 -0.4375 0.578125 -1.171875q0 -0.5 -0.3125 -0.828125q-0.328125 -0.3125 -1.46875 -0.578125q-5.3125 -1.171875 -6.734375 -2.140625q-1.96875 -1.34375 -1.96875 -3.734375q0 -2.15625 1.703125 -3.625q1.703125 -1.46875 5.28125 -1.46875q3.40625 0 5.0625 1.109375q1.65625 1.109375 2.28125 3.28125l-4.140625 0.765625q-0.265625 -0.96875 -1.015625 -1.484375q-0.734375 -0.515625 -2.109375 -0.515625q-1.734375 0 -2.484375 0.484375q-0.5 0.34375 -0.5 0.890625q0 0.46875 0.4375 0.796875q0.59375 0.4375 4.09375 1.234375q3.515625 0.796875 4.90625 1.953125q1.375 1.171875 1.375 3.265625q0 2.28125 -1.90625 3.921875q-1.90625 1.640625 -5.640625 1.640625q-3.390625 0 -5.375 -1.375q-1.96875 -1.375 -2.578125 -3.734375z" fill-rule="nonzero"/></g></svg>