<svg version="1.1" viewBox="0.0 0.0 960.0 720.0" fill="none" stroke="none" stroke-linecap="square" stroke-miterlimit="10" xmlns:xlink="http://www.w3.org/1999/xlink" xmlns="http://www.w3.org/2000/svg"><clipPath id="p.0"><path d="m0 0l960.0 0l0 720.0l-960.0 0l0 -720.0z" clip-rule="nonzero"/></clipPath><g clip-path="url(#p.0)"><path fill="#000000" fill-opacity="0.0" d="m0 0l960.0 0l0 720.0l-960.0 0z" fill-rule="evenodd"/><path fill="#000000" fill-opacity="0.0" d="m743.7454 313.39896l0 0c7.5667114 0 13.700745 5.0669556 13.700745 11.317383l0 23.963623c0 6.2504272 6.134094 11.317413 13.700806 11.317413l0 0c-7.5667114 0 -13.700806 5.066986 -13.700806 11.317413l0 23.963623c0 6.2504272 -6.134033 11.317383 -13.700745 11.317383z" fill-rule="evenodd"/><path fill="#000000" fill-opacity="0.0" d="m743.7454 313.39896l0 0c7.5667114 0 13.700745 5.0669556 13.700745 11.317383l0 23.963623c0 6.2504272 6.134094 11.317413 13.700806 11.317413l0 0c-7.5667114 0 -13.700806 5.066986 -13.700806 11.317413l0 23.963623c0 6.2504272 -6.134033 11.317383 -13.700745 11.317383" fill-rule="evenodd"/><path stroke="#9fc5e8" stroke-width="3.0" stroke-linejoin="round" stroke-linecap="butt" d="m743.7454 313.39896l0 0c7.5667114 0 13.700745 5.0669556 13.700745 11.317383l0 23.963623c0 6.2504272 6.134094 11.317413 13.700806 11.317413l0 0c-7.5667114 0 -13.700806 5.066986 -13.700806 11.317413l0 23.963623c0 6.2504272 -6.134033 11.317383 -13.700745 11.317383" fill-rule="evenodd"/><path fill="#ffffff" d="m314.0853 326.50952l0 0c0 -9.248413 7.4973145 -16.745728 16.745758 -16.745728l66.98096 0l0 0c4.441223 0 8.700592 1.7642517 11.841003 4.9046936c3.140442 3.140442 4.904724 7.3997803 4.904724 11.841034l0 66.98096c0 9.248413 -7.4973145 16.745728 -16.745728 16.745728l-66.98096 0c-9.248444 0 -16.745758 -7.4973145 -16.745758 -16.745728z" fill-rule="evenodd"/><path stroke="#000000" stroke-width="3.0" stroke-linejoin="round" stroke-linecap="butt" d="m314.0853 326.50952l0 0c0 -9.248413 7.4973145 -16.745728 16.745758 -16.745728l66.98096 0l0 0c4.441223 0 8.700592 1.7642517 11.841003 4.9046936c3.140442 3.140442 4.904724 7.3997803 4.904724 11.841034l0 66.98096c0 9.248413 -7.4973145 16.745728 -16.745728 16.745728l-66.98096 0c-9.248444 0 -16.745758 -7.4973145 -16.745758 -16.745728z" fill-rule="evenodd"/><path fill="#3d85c6" d="m532.5446 313.40027l18.64569 0l0 18.64566l-18.64569 0z" fill-rule="evenodd"/><path stroke="#000000" stroke-width="3.0" stroke-linejoin="round" stroke-linecap="butt" d="m532.5446 313.40027l18.64569 0l0 18.64566l-18.64569 0z" fill-rule="evenodd"/><path fill="#3d85c6" d="m532.5446 332.03876l18.64569 0l0 18.64566l-18.64569 0z" fill-rule="evenodd"/><path stroke="#000000" stroke-width="3.0" stroke-linejoin="round" stroke-linecap="butt" d="m532.5446 332.03876l18.64569 0l0 18.64566l-18.64569 0z" fill-rule="evenodd"/><path fill="#3d85c6" d="m532.5446 350.67725l18.64569 0l0 18.64566l-18.64569 0z" fill-rule="evenodd"/><path stroke="#000000" stroke-width="3.0" stroke-linejoin="round" stroke-linecap="butt" d="m532.5446 350.67725l18.64569 0l0 18.64566l-18.64569 0z" fill-rule="evenodd"/><path fill="#cfe2f3" d="m532.5446 369.31573l18.64569 0l0 18.64569l-18.64569 0z" fill-rule="evenodd"/><path stroke="#000000" stroke-width="3.0" stroke-linejoin="round" stroke-linecap="butt" d="m532.5446 369.31573l18.64569 0l0 18.64569l-18.64569 0z" fill-rule="evenodd"/><path fill="#cfe2f3" d="m532.5446 387.95422l18.64569 0l0 18.64569l-18.64569 0z" fill-rule="evenodd"/><path stroke="#000000" stroke-width="3.0" stroke-linejoin="round" stroke-linecap="butt" d="m532.5446 387.95422l18.64569 0l0 18.64569l-18.64569 0z" fill-rule="evenodd"/><path fill="#ffffff" d="m551.1833 313.40158l18.64563 0l0 93.19684l-18.64563 0z" fill-rule="evenodd"/><path stroke="#000000" stroke-width="3.0" stroke-linejoin="round" stroke-linecap="butt" d="m551.1833 313.40158l18.64563 0l0 93.19684l-18.64563 0z" fill-rule="evenodd"/><path fill="#ffffff" d="m0 17.11811l0 0c0 -9.454071 7.664039 -17.11811 17.11811 -17.11811l0 0c4.5400047 0 8.894064 1.80351 12.104332 5.013778c3.210266 3.2102685 5.0137787 7.564327 5.0137787 12.104332l0 0c0 9.454071 -7.6640396 17.11811 -17.11811 17.11811l0 0c-9.454071 0 -17.11811 -7.6640396 -17.11811 -17.11811z" fill-rule="evenodd"/><path fill="#ffffff" d="m925.7638 702.8819l0 0c0 -9.454102 7.6640015 -17.118103 17.118103 -17.118103l0 0c4.539978 0 8.894043 1.8034668 12.104309 5.013794c3.210266 3.210266 5.013794 7.56427 5.013794 12.104309l0 0c0 9.454041 -7.6640625 17.118103 -17.118103 17.118103l0 0c-9.454102 0 -17.118103 -7.6640625 -17.118103 -17.118103z" fill-rule="evenodd"/><path fill="#a64d79" d="m816.4685 50.83727l18.64569 0l0 18.645672l-18.64569 0z" fill-rule="evenodd"/><path stroke="#000000" stroke-width="3.0" stroke-linejoin="round" stroke-linecap="butt" d="m816.4685 50.83727l18.64569 0l0 18.645672l-18.64569 0z" fill-rule="evenodd"/><path fill="#a64d79" d="m816.4685 69.47576l18.64569 0l0 18.645668l-18.64569 0z" fill-rule="evenodd"/><path stroke="#000000" stroke-width="3.0" stroke-linejoin="round" stroke-linecap="butt" d="m816.4685 69.47576l18.64569 0l0 18.645668l-18.64569 0z" fill-rule="evenodd"/><path fill="#a64d79" d="m816.4685 88.11426l18.64569 0l0 18.645668l-18.64569 0z" fill-rule="evenodd"/><path stroke="#000000" stroke-width="3.0" stroke-linejoin="round" stroke-linecap="butt" d="m816.4685 88.11426l18.64569 0l0 18.645668l-18.64569 0z" fill-rule="evenodd"/><path fill="#a64d79" d="m816.4685 106.75275l18.64569 0l0 18.645676l-18.64569 0z" fill-rule="evenodd"/><path stroke="#000000" stroke-width="3.0" stroke-linejoin="round" stroke-linecap="butt" d="m816.4685 106.75275l18.64569 0l0 18.645676l-18.64569 0z" fill-rule="evenodd"/><path fill="#a64d79" d="m816.4685 125.39124l18.64569 0l0 18.645668l-18.64569 0z" fill-rule="evenodd"/><path stroke="#000000" stroke-width="3.0" stroke-linejoin="round" stroke-linecap="butt" d="m816.4685 125.39124l18.64569 0l0 18.645668l-18.64569 0z" fill-rule="evenodd"/><path fill="#a64d79" d="m835.107 50.83727l81.82678 0l0 93.19685l-81.82678 0z" fill-rule="evenodd"/><path stroke="#000000" stroke-width="3.0" stroke-linejoin="round" stroke-linecap="butt" d="m835.107 50.83727l81.82678 0l0 93.19685l-81.82678 0z" fill-rule="evenodd"/><path fill="#674ea7" d="m569.82806 313.39896l18.64569 0l0 18.64566l-18.64569 0z" fill-rule="evenodd"/><path stroke="#000000" stroke-width="3.0" stroke-linejoin="round" stroke-linecap="butt" d="m569.82806 313.39896l18.64569 0l0 18.64566l-18.64569 0z" fill-rule="evenodd"/><path fill="#674ea7" d="m569.82806 332.03745l18.64569 0l0 18.64566l-18.64569 0z" fill-rule="evenodd"/><path stroke="#000000" stroke-width="3.0" stroke-linejoin="round" stroke-linecap="butt" d="m569.82806 332.03745l18.64569 0l0 18.64566l-18.64569 0z" fill-rule="evenodd"/><path fill="#674ea7" d="m569.82806 350.67593l18.64569 0l0 18.64566l-18.64569 0z" fill-rule="evenodd"/><path stroke="#000000" stroke-width="3.0" stroke-linejoin="round" stroke-linecap="butt" d="m569.82806 350.67593l18.64569 0l0 18.64566l-18.64569 0z" fill-rule="evenodd"/><path fill="#674ea7" d="m569.82806 369.31442l18.64569 0l0 18.64569l-18.64569 0z" fill-rule="evenodd"/><path stroke="#000000" stroke-width="3.0" stroke-linejoin="round" stroke-linecap="butt" d="m569.82806 369.31442l18.64569 0l0 18.64569l-18.64569 0z" fill-rule="evenodd"/><path fill="#674ea7" d="m569.82806 387.9529l18.64569 0l0 18.64569l-18.64569 0z" fill-rule="evenodd"/><path stroke="#000000" stroke-width="3.0" stroke-linejoin="round" stroke-linecap="butt" d="m569.82806 387.9529l18.64569 0l0 18.64569l-18.64569 0z" fill-rule="evenodd"/><path fill="#674ea7" d="m588.46655 313.39896l81.82678 0l0 93.19684l-81.82678 0z" fill-rule="evenodd"/><path stroke="#000000" stroke-width="3.0" stroke-linejoin="round" stroke-linecap="butt" d="m588.46655 313.39896l81.82678 0l0 93.19684l-81.82678 0z" fill-rule="evenodd"/><path fill="#3d85c6" d="m382.98425 381.8189l0 0c0 -5.1488647 4.1739807 -9.322845 9.322845 -9.322845l0 0c2.4725647 0 4.843872 0.98223877 6.592224 2.7305908c1.7483826 1.7483826 2.7305908 4.1196594 2.7305908 6.5922546l0 0c0 5.148834 -4.1739807 9.322815 -9.322815 9.322815l0 0c-5.1488647 0 -9.322845 -4.1739807 -9.322845 -9.322815z" fill-rule="evenodd"/><path stroke="#000000" stroke-width="3.0" stroke-linejoin="round" stroke-linecap="butt" d="m382.98425 381.8189l0 0c0 -5.1488647 4.1739807 -9.322845 9.322845 -9.322845l0 0c2.4725647 0 4.843872 0.98223877 6.592224 2.7305908c1.7483826 1.7483826 2.7305908 4.1196594 2.7305908 6.5922546l0 0c0 5.148834 -4.1739807 9.322815 -9.322815 9.322815l0 0c-5.1488647 0 -9.322845 -4.1739807 -9.322845 -9.322815z" fill-rule="evenodd"/><path fill="#3d85c6" d="m382.98425 341.3596l0 0c0 -5.1488647 4.1739807 -9.322845 9.322845 -9.322845l0 0c2.4725647 0 4.843872 0.98223877 6.592224 2.7305908c1.7483826 1.7483826 2.7305908 4.11969 2.7305908 6.5922546l0 0c0 5.1488647 -4.1739807 9.322815 -9.322815 9.322815l0 0c-5.1488647 0 -9.322845 -4.17395 -9.322845 -9.322815z" fill-rule="evenodd"/><path stroke="#000000" stroke-width="3.0" stroke-linejoin="round" stroke-linecap="butt" d="m382.98425 341.3596l0 0c0 -5.1488647 4.1739807 -9.322845 9.322845 -9.322845l0 0c2.4725647 0 4.843872 0.98223877 6.592224 2.7305908c1.7483826 1.7483826 2.7305908 4.11969 2.7305908 6.5922546l0 0c0 5.1488647 -4.1739807 9.322815 -9.322815 9.322815l0 0c-5.1488647 0 -9.322845 -4.17395 -9.322845 -9.322815z" fill-rule="evenodd"/><path fill="#000000" fill-opacity="0.0" d="m401.6299 341.3596l130.92917 -18.64569" fill-rule="evenodd"/><path stroke="#000000" stroke-width="2.0" stroke-linejoin="round" stroke-linecap="butt" d="m401.6299 341.3596l130.92917 -18.64569" fill-rule="evenodd"/><path fill="#000000" fill-opacity="0.0" d="m401.6299 381.8189l130.92917 -21.826782" fill-rule="evenodd"/><path stroke="#000000" stroke-width="2.0" stroke-linejoin="round" stroke-linecap="butt" d="m401.6299 381.8189l130.92917 -21.826782" fill-rule="evenodd"/><path fill="#ffffff" d="m314.0853 63.94784l0 0c0 -9.248417 7.4973145 -16.745743 16.745758 -16.745743l66.98096 0l0 0c4.441223 0 8.700592 1.7642784 11.841003 4.9047165c3.140442 3.1404343 4.904724 7.3997803 4.904724 11.841026l0 66.98096c0 9.248413 -7.4973145 16.745743 -16.745728 16.745743l-66.98096 0c-9.248444 0 -16.745758 -7.4973297 -16.745758 -16.745743z" fill-rule="evenodd"/><path stroke="#000000" stroke-width="3.0" stroke-linejoin="round" stroke-linecap="butt" d="m314.0853 63.94784l0 0c0 -9.248417 7.4973145 -16.745743 16.745758 -16.745743l66.98096 0l0 0c4.441223 0 8.700592 1.7642784 11.841003 4.9047165c3.140442 3.1404343 4.904724 7.3997803 4.904724 11.841026l0 66.98096c0 9.248413 -7.4973145 16.745743 -16.745728 16.745743l-66.98096 0c-9.248444 0 -16.745758 -7.4973297 -16.745758 -16.745743z" fill-rule="evenodd"/><path fill="#3d85c6" d="m382.98425 122.32809l0 0c0 -5.1488647 4.1739807 -9.322838 9.322845 -9.322838l0 0c2.4725647 0 4.843872 0.9822235 6.592224 2.7305984c1.7483826 1.7483673 2.7305908 4.119667 2.7305908 6.5922394l0 0c0 5.148857 -4.1739807 9.322838 -9.322815 9.322838l0 0c-5.1488647 0 -9.322845 -4.1739807 -9.322845 -9.322838z" fill-rule="evenodd"/><path stroke="#000000" stroke-width="3.0" stroke-linejoin="round" stroke-linecap="butt" d="m382.98425 122.32809l0 0c0 -5.1488647 4.1739807 -9.322838 9.322845 -9.322838l0 0c2.4725647 0 4.843872 0.9822235 6.592224 2.7305984c1.7483826 1.7483673 2.7305908 4.119667 2.7305908 6.5922394l0 0c0 5.148857 -4.1739807 9.322838 -9.322815 9.322838l0 0c-5.1488647 0 -9.322845 -4.1739807 -9.322845 -9.322838z" fill-rule="evenodd"/><path fill="#3d85c6" d="m382.98425 72.54855l0 0c0 -5.148857 4.1739807 -9.32283 9.322845 -9.32283l0 0c2.4725647 0 4.843872 0.9822235 6.592224 2.7305908c1.7483826 1.7483749 2.7305908 4.1196747 2.7305908 6.5922394l0 0c0 5.1488647 -4.1739807 9.322838 -9.322815 9.322838l0 0c-5.1488647 0 -9.322845 -4.173973 -9.322845 -9.322838z" fill-rule="evenodd"/><path stroke="#000000" stroke-width="3.0" stroke-linejoin="round" stroke-linecap="butt" d="m382.98425 72.54855l0 0c0 -5.148857 4.1739807 -9.32283 9.322845 -9.32283l0 0c2.4725647 0 4.843872 0.9822235 6.592224 2.7305908c1.7483826 1.7483749 2.7305908 4.1196747 2.7305908 6.5922394l0 0c0 5.1488647 -4.1739807 9.322838 -9.322815 9.322838l0 0c-5.1488647 0 -9.322845 -4.173973 -9.322845 -9.322838z" fill-rule="evenodd"/><path fill="#ffffff" d="m314.0853 192.15651l0 0c0 -9.248428 7.4973145 -16.745743 16.745758 -16.745743l66.98096 0l0 0c4.441223 0 8.700592 1.764267 11.841003 4.904709c3.140442 3.140442 4.904724 7.3997803 4.904724 11.841034l0 66.98094c0 9.248413 -7.4973145 16.745758 -16.745728 16.745758l-66.98096 0c-9.248444 0 -16.745758 -7.497345 -16.745758 -16.745758z" fill-rule="evenodd"/><path stroke="#000000" stroke-width="3.0" stroke-linejoin="round" stroke-linecap="butt" d="m314.0853 192.15651l0 0c0 -9.248428 7.4973145 -16.745743 16.745758 -16.745743l66.98096 0l0 0c4.441223 0 8.700592 1.764267 11.841003 4.904709c3.140442 3.140442 4.904724 7.3997803 4.904724 11.841034l0 66.98094c0 9.248413 -7.4973145 16.745758 -16.745728 16.745758l-66.98096 0c-9.248444 0 -16.745758 -7.497345 -16.745758 -16.745758z" fill-rule="evenodd"/><path fill="#3d85c6" d="m382.98425 207.00656l0 0c0 -5.1488647 4.1739807 -9.32283 9.322845 -9.32283l0 0c2.4725647 0 4.843872 0.9822235 6.592224 2.7305908c1.7483826 1.7483673 2.7305908 4.1196747 2.7305908 6.5922394l0 0c0 5.1488647 -4.1739807 9.32283 -9.322815 9.32283l0 0c-5.1488647 0 -9.322845 -4.1739655 -9.322845 -9.32283z" fill-rule="evenodd"/><path stroke="#000000" stroke-width="3.0" stroke-linejoin="round" stroke-linecap="butt" d="m382.98425 207.00656l0 0c0 -5.1488647 4.1739807 -9.32283 9.322845 -9.32283l0 0c2.4725647 0 4.843872 0.9822235 6.592224 2.7305908c1.7483826 1.7483673 2.7305908 4.1196747 2.7305908 6.5922394l0 0c0 5.1488647 -4.1739807 9.32283 -9.322815 9.32283l0 0c-5.1488647 0 -9.322845 -4.1739655 -9.322845 -9.32283z" fill-rule="evenodd"/><path fill="#ffffff" d="m314.0853 460.86124l0 0c0 -9.248413 7.4973145 -16.745758 16.745758 -16.745758l66.98096 0l0 0c4.441223 0 8.700592 1.7642822 11.841003 4.904724c3.140442 3.140442 4.904724 7.3997803 4.904724 11.841034l0 66.98093c0 9.248413 -7.4973145 16.745789 -16.745728 16.745789l-66.98096 0c-9.248444 0 -16.745758 -7.4973755 -16.745758 -16.745789z" fill-rule="evenodd"/><path stroke="#000000" stroke-width="3.0" stroke-linejoin="round" stroke-linecap="butt" d="m314.0853 460.86124l0 0c0 -9.248413 7.4973145 -16.745758 16.745758 -16.745758l66.98096 0l0 0c4.441223 0 8.700592 1.7642822 11.841003 4.904724c3.140442 3.140442 4.904724 7.3997803 4.904724 11.841034l0 66.98093c0 9.248413 -7.4973145 16.745789 -16.745728 16.745789l-66.98096 0c-9.248444 0 -16.745758 -7.4973755 -16.745758 -16.745789z" fill-rule="evenodd"/><path fill="#3d85c6" d="m382.98425 516.1706l0 0c0 -5.148834 4.1739807 -9.322815 9.322845 -9.322815l0 0c2.4725647 0 4.843872 0.98220825 6.592224 2.7305908c1.7483826 1.748352 2.7305908 4.11969 2.7305908 6.592224l0 0c0 5.1488647 -4.1739807 9.322815 -9.322815 9.322815l0 0c-5.1488647 0 -9.322845 -4.17395 -9.322845 -9.322815z" fill-rule="evenodd"/><path stroke="#000000" stroke-width="3.0" stroke-linejoin="round" stroke-linecap="butt" d="m382.98425 516.1706l0 0c0 -5.148834 4.1739807 -9.322815 9.322845 -9.322815l0 0c2.4725647 0 4.843872 0.98220825 6.592224 2.7305908c1.7483826 1.748352 2.7305908 4.11969 2.7305908 6.592224l0 0c0 5.1488647 -4.1739807 9.322815 -9.322815 9.322815l0 0c-5.1488647 0 -9.322845 -4.17395 -9.322845 -9.322815z" fill-rule="evenodd"/><path fill="#3d85c6" d="m382.98425 475.71127l0 0c0 -5.148834 4.1739807 -9.322815 9.322845 -9.322815l0 0c2.4725647 0 4.843872 0.98220825 6.592224 2.7305908c1.7483826 1.7483826 2.7305908 4.1196594 2.7305908 6.592224l0 0c0 5.1488647 -4.1739807 9.322845 -9.322815 9.322845l0 0c-5.1488647 0 -9.322845 -4.1739807 -9.322845 -9.322845z" fill-rule="evenodd"/><path stroke="#000000" stroke-width="3.0" stroke-linejoin="round" stroke-linecap="butt" d="m382.98425 475.71127l0 0c0 -5.148834 4.1739807 -9.322815 9.322845 -9.322815l0 0c2.4725647 0 4.843872 0.98220825 6.592224 2.7305908c1.7483826 1.7483826 2.7305908 4.1196594 2.7305908 6.592224l0 0c0 5.1488647 -4.1739807 9.322845 -9.322815 9.322845l0 0c-5.1488647 0 -9.322845 -4.1739807 -9.322845 -9.322845z" fill-rule="evenodd"/><path fill="#ffffff" d="m314.0853 595.21295l0 0c0 -9.248413 7.4973145 -16.745789 16.745758 -16.745789l66.98096 0l0 0c4.441223 0 8.700592 1.7642822 11.841003 4.904724c3.140442 3.140442 4.904724 7.3997803 4.904724 11.841064l0 66.98096c0 9.248413 -7.4973145 16.745728 -16.745728 16.745728l-66.98096 0c-9.248444 0 -16.745758 -7.4973145 -16.745758 -16.745728z" fill-rule="evenodd"/><path stroke="#000000" stroke-width="3.0" stroke-linejoin="round" stroke-linecap="butt" stroke-dasharray="12.0,9.0" d="m314.0853 595.21295l0 0c0 -9.248413 7.4973145 -16.745789 16.745758 -16.745789l66.98096 0l0 0c4.441223 0 8.700592 1.7642822 11.841003 4.904724c3.140442 3.140442 4.904724 7.3997803 4.904724 11.841064l0 66.98096c0 9.248413 -7.4973145 16.745728 -16.745728 16.745728l-66.98096 0c-9.248444 0 -16.745758 -7.4973145 -16.745758 -16.745728z" fill-rule="evenodd"/><path fill="#3d85c6" d="m382.98425 610.063l0 0c0 -5.1488647 4.1739807 -9.322815 9.322845 -9.322815l0 0c2.4725647 0 4.843872 0.98223877 6.592224 2.7305908c1.7483826 1.748352 2.7305908 4.119629 2.7305908 6.592224l0 0c0 5.1488647 -4.1739807 9.322815 -9.322815 9.322815l0 0c-5.1488647 0 -9.322845 -4.17395 -9.322845 -9.322815z" fill-rule="evenodd"/><path stroke="#000000" stroke-width="3.0" stroke-linejoin="round" stroke-linecap="butt" d="m382.98425 610.063l0 0c0 -5.1488647 4.1739807 -9.322815 9.322845 -9.322815l0 0c2.4725647 0 4.843872 0.98223877 6.592224 2.7305908c1.7483826 1.748352 2.7305908 4.119629 2.7305908 6.592224l0 0c0 5.1488647 -4.1739807 9.322815 -9.322815 9.322815l0 0c-5.1488647 0 -9.322845 -4.17395 -9.322845 -9.322815z" fill-rule="evenodd"/><path fill="#3d85c6" d="m382.98425 97.438324l0 0c0 -5.1488647 4.1739807 -9.322838 9.322845 -9.322838l0 0c2.4725647 0 4.843872 0.9822235 6.592224 2.7305908c1.7483826 1.7483749 2.7305908 4.1196747 2.7305908 6.592247l0 0c0 5.148857 -4.1739807 9.32283 -9.322815 9.32283l0 0c-5.1488647 0 -9.322845 -4.173973 -9.322845 -9.32283z" fill-rule="evenodd"/><path stroke="#000000" stroke-width="3.0" stroke-linejoin="round" stroke-linecap="butt" d="m382.98425 97.438324l0 0c0 -5.1488647 4.1739807 -9.322838 9.322845 -9.322838l0 0c2.4725647 0 4.843872 0.9822235 6.592224 2.7305908c1.7483826 1.7483749 2.7305908 4.1196747 2.7305908 6.592247l0 0c0 5.148857 -4.1739807 9.32283 -9.322815 9.32283l0 0c-5.1488647 0 -9.322845 -4.173973 -9.322845 -9.32283z" fill-rule="evenodd"/><path fill="#000000" fill-opacity="0.0" d="m401.6299 72.54855l130.92917 250.17322" fill-rule="evenodd"/><path stroke="#000000" stroke-width="2.0" stroke-linejoin="round" stroke-linecap="butt" d="m401.6299 72.54855l130.92917 250.17322" fill-rule="evenodd"/><path fill="#000000" fill-opacity="0.0" d="m401.6299 97.438324l130.92917 243.93701" fill-rule="evenodd"/><path stroke="#000000" stroke-width="2.0" stroke-linejoin="round" stroke-linecap="butt" d="m401.6299 97.438324l130.92917 243.93701" fill-rule="evenodd"/><path fill="#000000" fill-opacity="0.0" d="m401.6299 122.32809l130.92917 237.66928" fill-rule="evenodd"/><path stroke="#000000" stroke-width="2.0" stroke-linejoin="round" stroke-linecap="butt" d="m401.6299 122.32809l130.92917 237.66928" fill-rule="evenodd"/><path fill="#000000" fill-opacity="0.0" d="m401.6299 207.00656l130.92917 115.71652" fill-rule="evenodd"/><path stroke="#000000" stroke-width="2.0" stroke-linejoin="round" stroke-linecap="butt" d="m401.6299 207.00656l130.92917 115.71652" fill-rule="evenodd"/><path fill="#000000" fill-opacity="0.0" d="m401.6299 475.71127l130.92917 -152.97638" fill-rule="evenodd"/><path stroke="#000000" stroke-width="2.0" stroke-linejoin="round" stroke-linecap="butt" d="m401.6299 475.71127l130.92917 -152.97638" fill-rule="evenodd"/><path fill="#000000" fill-opacity="0.0" d="m401.6299 516.1706l130.92917 -174.80313" fill-rule="evenodd"/><path stroke="#000000" stroke-width="2.0" stroke-linejoin="round" stroke-linecap="butt" d="m401.6299 516.1706l130.92917 -174.80313" fill-rule="evenodd"/><path fill="#000000" fill-opacity="0.0" d="m401.6299 610.063l130.92917 -212.78738" fill-rule="evenodd"/><path stroke="#000000" stroke-width="2.0" stroke-linejoin="round" stroke-linecap="butt" stroke-dasharray="8.0,6.0" d="m401.6299 610.063l130.92917 -212.78738" fill-rule="evenodd"/><path fill="#ff0000" d="m338.21307 615.2543l12.660645 -12.6605835l13.449127 13.449097l13.449097 -13.449097l12.660645 12.6605835l-13.449127 13.449158l13.449127 13.449097l-12.660645 12.660645l-13.449097 -13.449158l-13.449127 13.449158l-12.660645 -12.660645l13.449127 -13.449097z" fill-rule="evenodd"/><path stroke="#000000" stroke-width="3.0" stroke-linejoin="round" stroke-linecap="butt" d="m338.21307 615.2543l12.660645 -12.6605835l13.449127 13.449097l13.449097 -13.449097l12.660645 12.6605835l-13.449127 13.449158l13.449127 13.449097l-12.660645 12.660645l-13.449097 -13.449158l-13.449127 13.449158l-12.660645 -12.660645l13.449127 -13.449097z" fill-rule="evenodd"/><path fill="#000000" fill-opacity="0.0" d="m196.09973 544.58795c-7.5667267 0 -13.700775 -6.134094 -13.700775 -13.700806l0 -221.29135c0 -7.566742 -6.1340637 -13.700775 -13.70079 -13.700775l0 0c7.5667267 0 13.70079 -6.1340637 13.70079 -13.700806l0 -221.29132l0 0c0 -7.5667343 6.1340485 -13.700787 13.700775 -13.700787z" fill-rule="evenodd"/><path fill="#000000" fill-opacity="0.0" d="m196.09973 544.58795c-7.5667267 0 -13.700775 -6.134094 -13.700775 -13.700806l0 -221.29135c0 -7.566742 -6.1340637 -13.700775 -13.70079 -13.700775l0 0c7.5667267 0 13.70079 -6.1340637 13.70079 -13.700806l0 -221.29132l0 0c0 -7.5667343 6.1340485 -13.700787 13.700775 -13.700787" fill-rule="evenodd"/><path stroke="#000000" stroke-width="3.0" stroke-linejoin="round" stroke-linecap="butt" d="m196.09973 544.58795c-7.5667267 0 -13.700775 -6.134094 -13.700775 -13.700806l0 -221.29135c0 -7.566742 -6.1340637 -13.700775 -13.70079 -13.700775l0 0c7.5667267 0 13.70079 -6.1340637 13.70079 -13.700806l0 -221.29132l0 0c0 -7.5667343 6.1340485 -13.700787 13.700775 -13.700787" fill-rule="evenodd"/><path fill="#000000" fill-opacity="0.0" d="m196.09973 678.95013c-7.5667267 0 -13.700775 -6.134033 -13.700775 -13.700806l0 -288.4724c0 -7.566742 -6.1340637 -13.700806 -13.70079 -13.700806l0 0c7.5667267 0 13.70079 -6.134033 13.70079 -13.700775l0 -288.47244l0 0c0 -7.5667343 6.1340485 -13.700787 13.700775 -13.700787z" fill-rule="evenodd"/><path fill="#000000" fill-opacity="0.0" d="m196.09973 678.95013c-7.5667267 0 -13.700775 -6.134033 -13.700775 -13.700806l0 -288.4724c0 -7.566742 -6.1340637 -13.700806 -13.70079 -13.700806l0 0c7.5667267 0 13.70079 -6.134033 13.70079 -13.700775l0 -288.47244l0 0c0 -7.5667343 6.1340485 -13.700787 13.700775 -13.700787" fill-rule="evenodd"/><path stroke="#000000" stroke-width="3.0" stroke-linejoin="round" stroke-linecap="butt" stroke-dasharray="12.0,9.0" d="m196.09973 678.95013c-7.5667267 0 -13.700775 -6.134033 -13.700775 -13.700806l0 -288.4724c0 -7.566742 -6.1340637 -13.700806 -13.70079 -13.700806l0 0c7.5667267 0 13.70079 -6.134033 13.70079 -13.700775l0 -288.47244l0 0c0 -7.5667343 6.1340485 -13.700787 13.700775 -13.700787" fill-rule="evenodd"/><path fill="#000000" fill-opacity="0.0" d="m743.7454 313.37796l0 0c3.633667 0 7.1185303 1.4434509 9.687927 4.012848c2.569397 2.569397 4.0128174 6.0542603 4.0128174 9.687927l0 0.5826721l0 0c0 7.566742 6.134094 13.700806 13.700806 13.700806l0 0c-7.5667114 0 -13.700806 6.134033 -13.700806 13.700775l0 0.5826721c0 7.566742 -6.134033 13.700806 -13.700745 13.700806z" fill-rule="evenodd"/><path fill="#000000" fill-opacity="0.0" d="m743.7454 313.37796l0 0c3.633667 0 7.1185303 1.4434509 9.687927 4.012848c2.569397 2.569397 4.0128174 6.0542603 4.0128174 9.687927l0 0.5826721l0 0c0 7.566742 6.134094 13.700806 13.700806 13.700806l0 0c-7.5667114 0 -13.700806 6.134033 -13.700806 13.700775l0 0.5826721c0 7.566742 -6.134033 13.700806 -13.700745 13.700806" fill-rule="evenodd"/><path stroke="#3d85c6" stroke-width="3.0" stroke-linejoin="round" stroke-linecap="butt" d="m743.7454 313.37796l0 0c3.633667 0 7.1185303 1.4434509 9.687927 4.012848c2.569397 2.569397 4.0128174 6.0542603 4.0128174 9.687927l0 0.5826721l0 0c0 7.566742 6.134094 13.700806 13.700806 13.700806l0 0c-7.5667114 0 -13.700806 6.134033 -13.700806 13.700775l0 0.5826721c0 7.566742 -6.134033 13.700806 -13.700745 13.700806" fill-rule="evenodd"/><path fill="#000000" fill-opacity="0.0" d="m0 294.3281l186.4567 0l0 131.33856l-186.4567 0z" fill-rule="evenodd"/><path fill="#000000" d="m11.515625 334.0481l0 -22.90625l10.15625 0q3.0625 0 4.65625 0.625q1.59375 0.609375 2.546875 2.171875q0.953125 1.5625 0.953125 3.453125q0 2.4375 -1.578125 4.109375q-1.578125 1.671875 -4.875 2.125q1.203125 0.578125 1.828125 1.140625q1.328125 1.21875 2.515625 3.046875l3.984375 6.234375l-3.8125 0l-3.03125 -4.765625q-1.328125 -2.0625 -2.1875 -3.15625q-0.859375 -1.09375 -1.546875 -1.53125q-0.671875 -0.4375 -1.375 -0.609375q-0.515625 -0.109375 -1.6875 -0.109375l-3.515625 0l0 10.171875l-3.03125 0zm3.03125 -12.796875l6.515625 0q2.078125 0 3.25 -0.421875q1.171875 -0.4375 1.78125 -1.375q0.609375 -0.953125 0.609375 -2.0625q0 -1.625 -1.1875 -2.671875q-1.171875 -1.046875 -3.71875 -1.046875l-7.25 0l0 7.578125zm30.5 10.75q-1.5625 1.328125 -3.015625 1.875q-1.4375 0.546875 -3.09375 0.546875q-2.734375 0 -4.203125 -1.328125q-1.46875 -1.34375 -1.46875 -3.421875q0 -1.21875 0.546875 -2.21875q0.5625 -1.015625 1.453125 -1.625q0.90625 -0.609375 2.03125 -0.921875q0.828125 -0.21875 2.5 -0.421875q3.40625 -0.40625 5.015625 -0.96875q0.015625 -0.578125 0.015625 -0.734375q0 -1.71875 -0.796875 -2.421875q-1.078125 -0.953125 -3.203125 -0.953125q-1.984375 0 -2.9375 0.703125q-0.9375 0.6875 -1.390625 2.453125l-2.75 -0.375q0.375 -1.765625 1.234375 -2.84375q0.859375 -1.09375 2.484375 -1.671875q1.625 -0.59375 3.765625 -0.59375q2.125 0 3.453125 0.5q1.328125 0.5 1.953125 1.265625q0.625 0.75 0.875 1.90625q0.140625 0.71875 0.140625 2.59375l0 3.75q0 3.921875 0.171875 4.96875q0.1875 1.03125 0.71875 1.984375l-2.9375 0q-0.4375 -0.875 -0.5625 -2.046875zm-0.234375 -6.28125q-1.53125 0.625 -4.59375 1.0625q-1.734375 0.25 -2.453125 0.5625q-0.71875 0.3125 -1.109375 0.921875q-0.390625 0.59375 -0.390625 1.328125q0 1.125 0.84375 1.875q0.859375 0.75 2.5 0.75q1.625 0 2.890625 -0.703125q1.265625 -0.71875 1.859375 -1.953125q0.453125 -0.953125 0.453125 -2.8125l0 -1.03125zm13.34375 5.8125l0.40625 2.484375q-1.1875 0.25 -2.125 0.25q-1.53125 0 -2.375 -0.484375q-0.84375 -0.484375 -1.1875 -1.265625q-0.34375 -0.796875 -0.34375 -3.328125l0 -9.546875l-2.0625 0l0 -2.1875l2.0625 0l0 -4.109375l2.796875 -1.6875l0 5.796875l2.828125 0l0 2.1875l-2.828125 0l0 9.703125q0 1.203125 0.140625 1.546875q0.15625 0.34375 0.484375 0.546875q0.34375 0.203125 0.96875 0.203125q0.46875 0 1.234375 -0.109375zm2.765625 -17.15625l0 -3.234375l2.8125 0l0 3.234375l-2.8125 0zm0 19.671875l0 -16.59375l2.8125 0l0 16.59375l-2.8125 0zm6.046875 -8.296875q0 -4.609375 2.5625 -6.828125q2.140625 -1.84375 5.21875 -1.84375q3.421875 0 5.59375 2.25q2.171875 2.234375 2.171875 6.1875q0 3.203125 -0.96875 5.046875q-0.953125 1.828125 -2.796875 2.84375q-1.828125 1.015625 -4.0 1.015625q-3.484375 0 -5.640625 -2.234375q-2.140625 -2.234375 -2.140625 -6.4375zm2.890625 0q0 3.1875 1.390625 4.78125q1.390625 1.578125 3.5 1.578125q2.09375 0 3.484375 -1.59375q1.390625 -1.59375 1.390625 -4.859375q0 -3.078125 -1.40625 -4.65625q-1.390625 -1.59375 -3.46875 -1.59375q-2.109375 0 -3.5 1.578125q-1.390625 1.578125 -1.390625 4.765625zm23.796875 0q0 -4.609375 2.5625 -6.828125q2.140625 -1.84375 5.21875 -1.84375q3.421875 0 5.59375 2.25q2.171875 2.234375 2.171875 6.1875q0 3.203125 -0.96875 5.046875q-0.953125 1.828125 -2.796875 2.84375q-1.828125 1.015625 -4.0 1.015625q-3.484375 0 -5.640625 -2.234375q-2.140625 -2.234375 -2.140625 -6.4375zm2.890625 0q0 3.1875 1.390625 4.78125q1.390625 1.578125 3.5 1.578125q2.09375 0 3.484375 -1.59375q1.390625 -1.59375 1.390625 -4.859375q0 -3.078125 -1.40625 -4.65625q-1.390625 -1.59375 -3.46875 -1.59375q-2.109375 0 -3.5 1.578125q-1.390625 1.578125 -1.390625 4.765625zm16.625 8.296875l0 -14.40625l-2.484375 0l0 -2.1875l2.484375 0l0 -1.765625q0 -1.671875 0.296875 -2.484375q0.40625 -1.09375 1.421875 -1.765625q1.03125 -0.6875 2.875 -0.6875q1.1875 0 2.625 0.28125l-0.421875 2.453125q-0.875 -0.15625 -1.65625 -0.15625q-1.28125 0 -1.8125 0.546875q-0.53125 0.546875 -0.53125 2.046875l0 1.53125l3.234375 0l0 2.1875l-3.234375 0l0 14.40625l-2.796875 0z" fill-rule="nonzero"/><path fill="#000000" d="m9.984375 367.09497l2.78125 -0.4375q0.234375 1.671875 1.296875 2.5625q1.078125 0.890625 3.0 0.890625q1.9375 0 2.875 -0.78125q0.9375 -0.796875 0.9375 -1.859375q0 -0.953125 -0.828125 -1.5q-0.578125 -0.375 -2.875 -0.953125q-3.09375 -0.78125 -4.296875 -1.34375q-1.1875 -0.578125 -1.8125 -1.578125q-0.609375 -1.015625 -0.609375 -2.234375q0 -1.109375 0.5 -2.046875q0.515625 -0.953125 1.390625 -1.578125q0.65625 -0.484375 1.78125 -0.8125q1.140625 -0.34375 2.4375 -0.34375q1.953125 0 3.421875 0.5625q1.484375 0.5625 2.1875 1.53125q0.703125 0.953125 0.96875 2.5625l-2.75 0.375q-0.1875 -1.28125 -1.09375 -2.0q-0.890625 -0.71875 -2.53125 -0.71875q-1.9375 0 -2.765625 0.640625q-0.828125 0.640625 -0.828125 1.5q0 0.546875 0.34375 0.984375q0.34375 0.453125 1.078125 0.75q0.421875 0.15625 2.484375 0.71875q2.984375 0.796875 4.15625 1.3125q1.1875 0.5 1.859375 1.46875q0.671875 0.96875 0.671875 2.40625q0 1.40625 -0.828125 2.65625q-0.8125 1.234375 -2.359375 1.921875q-1.546875 0.671875 -3.5 0.671875q-3.234375 0 -4.9375 -1.34375q-1.6875 -1.34375 -2.15625 -3.984375zm28.0 4.953125l0 -2.4375q-1.9375 2.8125 -5.265625 2.8125q-1.46875 0 -2.75 -0.5625q-1.265625 -0.5625 -1.890625 -1.40625q-0.609375 -0.859375 -0.859375 -2.09375q-0.171875 -0.828125 -0.171875 -2.625l0 -10.28125l2.8125 0l0 9.203125q0 2.203125 0.171875 2.96875q0.265625 1.109375 1.125 1.75q0.859375 0.625 2.125 0.625q1.265625 0 2.375 -0.640625q1.109375 -0.65625 1.5625 -1.765625q0.46875 -1.125 0.46875 -3.25l0 -8.890625l2.8125 0l0 16.59375l-2.515625 0zm6.921875 6.359375l0 -22.953125l2.5625 0l0 2.15625q0.90625 -1.265625 2.046875 -1.890625q1.140625 -0.640625 2.765625 -0.640625q2.125 0 3.75 1.09375q1.625 1.09375 2.453125 3.09375q0.828125 1.984375 0.828125 4.359375q0 2.546875 -0.921875 4.59375q-0.90625 2.03125 -2.65625 3.125q-1.734375 1.078125 -3.65625 1.078125q-1.40625 0 -2.53125 -0.59375q-1.109375 -0.59375 -1.828125 -1.5l0 8.078125l-2.8125 0zm2.546875 -14.5625q0 3.203125 1.296875 4.734375q1.296875 1.53125 3.140625 1.53125q1.875 0 3.203125 -1.578125q1.34375 -1.59375 1.34375 -4.921875q0 -3.171875 -1.3125 -4.75q-1.296875 -1.578125 -3.109375 -1.578125q-1.796875 0 -3.1875 1.6875q-1.375 1.671875 -1.375 4.875zm15.25 14.5625l0 -22.953125l2.5625 0l0 2.15625q0.90625 -1.265625 2.046875 -1.890625q1.140625 -0.640625 2.765625 -0.640625q2.125 0 3.75 1.09375q1.625 1.09375 2.453125 3.09375q0.828125 1.984375 0.828125 4.359375q0 2.546875 -0.921875 4.59375q-0.90625 2.03125 -2.65625 3.125q-1.734375 1.078125 -3.65625 1.078125q-1.40625 0 -2.53125 -0.59375q-1.109375 -0.59375 -1.828125 -1.5l0 8.078125l-2.8125 0zm2.546875 -14.5625q0 3.203125 1.296875 4.734375q1.296875 1.53125 3.140625 1.53125q1.875 0 3.203125 -1.578125q1.34375 -1.59375 1.34375 -4.921875q0 -3.171875 -1.3125 -4.75q-1.296875 -1.578125 -3.109375 -1.578125q-1.796875 0 -3.1875 1.6875q-1.375 1.671875 -1.375 4.875zm14.203125 -0.09375q0 -4.609375 2.5625 -6.828125q2.140625 -1.84375 5.21875 -1.84375q3.421875 0 5.59375 2.25q2.171875 2.234375 2.171875 6.1875q0 3.203125 -0.96875 5.046875q-0.953125 1.828125 -2.796875 2.84375q-1.828125 1.015625 -4.0 1.015625q-3.484375 0 -5.640625 -2.234375q-2.140625 -2.234375 -2.140625 -6.4375zm2.890625 0q0 3.1875 1.390625 4.78125q1.390625 1.578125 3.5 1.578125q2.09375 0 3.484375 -1.59375q1.390625 -1.59375 1.390625 -4.859375q0 -3.078125 -1.40625 -4.65625q-1.390625 -1.59375 -3.46875 -1.59375q-2.109375 0 -3.5 1.578125q-1.390625 1.578125 -1.390625 4.765625zm15.921875 8.296875l0 -16.59375l2.53125 0l0 2.515625q0.96875 -1.765625 1.78125 -2.328125q0.828125 -0.5625 1.8125 -0.5625q1.421875 0 2.890625 0.90625l-0.96875 2.609375q-1.03125 -0.609375 -2.0625 -0.609375q-0.921875 0 -1.65625 0.5625q-0.734375 0.546875 -1.046875 1.53125q-0.46875 1.5 -0.46875 3.28125l0 8.6875l-2.8125 0zm16.828125 -2.515625l0.40625 2.484375q-1.1875 0.25 -2.125 0.25q-1.53125 0 -2.375 -0.484375q-0.84375 -0.484375 -1.1875 -1.265625q-0.34375 -0.796875 -0.34375 -3.328125l0 -9.546875l-2.0625 0l0 -2.1875l2.0625 0l0 -4.109375l2.796875 -1.6875l0 5.796875l2.828125 0l0 2.1875l-2.828125 0l0 9.703125q0 1.203125 0.140625 1.546875q0.15625 0.34375 0.484375 0.546875q0.34375 0.203125 0.96875 0.203125q0.46875 0 1.234375 -0.109375zm14.109375 -2.828125l2.90625 0.359375q-0.6875 2.546875 -2.546875 3.953125q-1.859375 1.40625 -4.75 1.40625q-3.640625 0 -5.78125 -2.234375q-2.125 -2.25 -2.125 -6.296875q0 -4.1875 2.15625 -6.5q2.15625 -2.3125 5.59375 -2.3125q3.328125 0 5.4375 2.265625q2.109375 2.265625 2.109375 6.375q0 0.25 -0.015625 0.75l-12.375 0q0.15625 2.734375 1.546875 4.1875q1.390625 1.453125 3.46875 1.453125q1.546875 0 2.640625 -0.8125q1.09375 -0.8125 1.734375 -2.59375zm-9.234375 -4.546875l9.265625 0q-0.1875 -2.09375 -1.0625 -3.140625q-1.34375 -1.625 -3.484375 -1.625q-1.9375 0 -3.265625 1.296875q-1.3125 1.296875 -1.453125 3.46875zm26.4375 9.890625l0 -2.09375q-1.578125 2.46875 -4.640625 2.46875q-1.984375 0 -3.65625 -1.09375q-1.65625 -1.09375 -2.578125 -3.046875q-0.90625 -1.96875 -0.90625 -4.515625q0 -2.484375 0.828125 -4.5q0.828125 -2.03125 2.484375 -3.109375q1.65625 -1.078125 3.703125 -1.078125q1.5 0 2.671875 0.640625q1.171875 0.625 1.90625 1.640625l0 -8.21875l2.796875 0l0 22.90625l-2.609375 0zm-8.890625 -8.28125q0 3.1875 1.34375 4.765625q1.34375 1.578125 3.171875 1.578125q1.84375 0 3.125 -1.5q1.296875 -1.515625 1.296875 -4.609375q0 -3.40625 -1.3125 -5.0q-1.3125 -1.59375 -3.234375 -1.59375q-1.875 0 -3.140625 1.53125q-1.25 1.53125 -1.25 4.828125z" fill-rule="nonzero"/><path fill="#000000" d="m21.9375 403.96997l2.765625 0.359375q-0.453125 2.859375 -2.328125 4.484375q-1.859375 1.609375 -4.578125 1.609375q-3.40625 0 -5.484375 -2.21875q-2.0625 -2.234375 -2.0625 -6.390625q0 -2.6875 0.890625 -4.703125q0.890625 -2.015625 2.703125 -3.015625q1.828125 -1.015625 3.96875 -1.015625q2.703125 0 4.421875 1.375q1.71875 1.359375 2.203125 3.875l-2.734375 0.421875q-0.390625 -1.671875 -1.390625 -2.515625q-0.984375 -0.84375 -2.390625 -0.84375q-2.125 0 -3.453125 1.53125q-1.328125 1.515625 -1.328125 4.8125q0 3.34375 1.28125 4.859375q1.28125 1.515625 3.34375 1.515625q1.65625 0 2.765625 -1.015625q1.109375 -1.015625 1.40625 -3.125zm5.109375 6.078125l0 -22.90625l2.8125 0l0 22.90625l-2.8125 0zm7.1875 -19.671875l0 -3.234375l2.8125 0l0 3.234375l-2.8125 0zm0 19.671875l0 -16.59375l2.8125 0l0 16.59375l-2.8125 0zm18.453125 -5.34375l2.90625 0.359375q-0.6875 2.546875 -2.546875 3.953125q-1.859375 1.40625 -4.75 1.40625q-3.640625 0 -5.78125 -2.234375q-2.125 -2.25 -2.125 -6.296875q0 -4.1875 2.15625 -6.5q2.15625 -2.3125 5.59375 -2.3125q3.328125 0 5.4375 2.265625q2.109375 2.265625 2.109375 6.375q0 0.25 -0.015625 0.75l-12.375 0q0.15625 2.734375 1.546875 4.1875q1.390625 1.453125 3.46875 1.453125q1.546875 0 2.640625 -0.8125q1.09375 -0.8125 1.734375 -2.59375zm-9.234375 -4.546875l9.265625 0q-0.1875 -2.09375 -1.0625 -3.140625q-1.34375 -1.625 -3.484375 -1.625q-1.9375 0 -3.265625 1.296875q-1.3125 1.296875 -1.453125 3.46875zm15.671875 9.890625l0 -16.59375l2.53125 0l0 2.359375q1.828125 -2.734375 5.28125 -2.734375q1.5 0 2.75 0.546875q1.265625 0.53125 1.890625 1.40625q0.625 0.875 0.875 2.078125q0.15625 0.78125 0.15625 2.734375l0 10.203125l-2.8125 0l0 -10.09375q0 -1.71875 -0.328125 -2.5625q-0.328125 -0.859375 -1.171875 -1.359375q-0.828125 -0.515625 -1.953125 -0.515625q-1.796875 0 -3.109375 1.140625q-1.296875 1.140625 -1.296875 4.328125l0 9.0625l-2.8125 0zm23.9375 -2.515625l0.40625 2.484375q-1.1875 0.25 -2.125 0.25q-1.53125 0 -2.375 -0.484375q-0.84375 -0.484375 -1.1875 -1.265625q-0.34375 -0.796875 -0.34375 -3.328125l0 -9.546875l-2.0625 0l0 -2.1875l2.0625 0l0 -4.109375l2.796875 -1.6875l0 5.796875l2.828125 0l0 2.1875l-2.828125 0l0 9.703125q0 1.203125 0.140625 1.546875q0.15625 0.34375 0.484375 0.546875q0.34375 0.203125 0.96875 0.203125q0.46875 0 1.234375 -0.109375zm1.625 -2.4375l2.78125 -0.4375q0.234375 1.671875 1.296875 2.5625q1.078125 0.890625 3.0 0.890625q1.9375 0 2.875 -0.78125q0.9375 -0.796875 0.9375 -1.859375q0 -0.953125 -0.828125 -1.5q-0.578125 -0.375 -2.875 -0.953125q-3.09375 -0.78125 -4.296875 -1.34375q-1.1875 -0.578125 -1.8125 -1.578125q-0.609375 -1.015625 -0.609375 -2.234375q0 -1.109375 0.5 -2.046875q0.515625 -0.953125 1.390625 -1.578125q0.65625 -0.484375 1.78125 -0.8125q1.140625 -0.34375 2.4375 -0.34375q1.953125 0 3.421875 0.5625q1.484375 0.5625 2.1875 1.53125q0.703125 0.953125 0.96875 2.5625l-2.75 0.375q-0.1875 -1.28125 -1.09375 -2.0q-0.890625 -0.71875 -2.53125 -0.71875q-1.9375 0 -2.765625 0.640625q-0.828125 0.640625 -0.828125 1.5q0 0.546875 0.34375 0.984375q0.34375 0.453125 1.078125 0.75q0.421875 0.15625 2.484375 0.71875q2.984375 0.796875 4.15625 1.3125q1.1875 0.5 1.859375 1.46875q0.671875 0.96875 0.671875 2.40625q0 1.40625 -0.828125 2.65625q-0.8125 1.234375 -2.359375 1.921875q-1.546875 0.671875 -3.5 0.671875q-3.234375 0 -4.9375 -1.34375q-1.6875 -1.34375 -2.15625 -3.984375z" fill-rule="nonzero"/><path fill="#000000" fill-opacity="0.0" d="m786.02625 294.3281l163.93701 0l0 131.33856l-163.93701 0z" fill-rule="evenodd"/><path fill="#000000" d="m833.19763 334.0481l0 -22.90625l10.15625 0q3.0625 0 4.65625 0.625q1.59375 0.609375 2.546875 2.171875q0.953125 1.5625 0.953125 3.453125q0 2.4375 -1.578125 4.109375q-1.578125 1.671875 -4.875 2.125q1.203125 0.578125 1.828125 1.140625q1.328125 1.21875 2.515625 3.046875l3.984375 6.234375l-3.8125 0l-3.03125 -4.765625q-1.328125 -2.0625 -2.1875 -3.15625q-0.859375 -1.09375 -1.546875 -1.53125q-0.671875 -0.4375 -1.375 -0.609375q-0.515625 -0.109375 -1.6875 -0.109375l-3.515625 0l0 10.171875l-3.03125 0zm3.03125 -12.796875l6.515625 0q2.078125 0 3.25 -0.421875q1.171875 -0.4375 1.78125 -1.375q0.609375 -0.953125 0.609375 -2.0625q0 -1.625 -1.1875 -2.671875q-1.171875 -1.046875 -3.71875 -1.046875l-7.25 0l0 7.578125zm30.5 10.75q-1.5625 1.328125 -3.015625 1.875q-1.4375 0.546875 -3.09375 0.546875q-2.734375 0 -4.203125 -1.328125q-1.46875 -1.34375 -1.46875 -3.421875q0 -1.21875 0.546875 -2.21875q0.5625 -1.015625 1.453125 -1.625q0.90625 -0.609375 2.03125 -0.921875q0.828125 -0.21875 2.5 -0.421875q3.40625 -0.40625 5.015625 -0.96875q0.015625 -0.578125 0.015625 -0.734375q0 -1.71875 -0.796875 -2.421875q-1.078125 -0.953125 -3.203125 -0.953125q-1.984375 0 -2.9375 0.703125q-0.9375 0.6875 -1.390625 2.453125l-2.75 -0.375q0.375 -1.765625 1.234375 -2.84375q0.859375 -1.09375 2.484375 -1.671875q1.625 -0.59375 3.765625 -0.59375q2.125 0 3.453125 0.5q1.328125 0.5 1.953125 1.265625q0.625 0.75 0.875 1.90625q0.140625 0.71875 0.140625 2.59375l0 3.75q0 3.921875 0.171875 4.96875q0.1875 1.03125 0.71875 1.984375l-2.9375 0q-0.4375 -0.875 -0.5625 -2.046875zm-0.234375 -6.28125q-1.53125 0.625 -4.59375 1.0625q-1.734375 0.25 -2.453125 0.5625q-0.71875 0.3125 -1.109375 0.921875q-0.390625 0.59375 -0.390625 1.328125q0 1.125 0.84375 1.875q0.859375 0.75 2.5 0.75q1.625 0 2.890625 -0.703125q1.265625 -0.71875 1.859375 -1.953125q0.453125 -0.953125 0.453125 -2.8125l0 -1.03125zm13.34375 5.8125l0.40625 2.484375q-1.1875 0.25 -2.125 0.25q-1.53125 0 -2.375 -0.484375q-0.84375 -0.484375 -1.1875 -1.265625q-0.34375 -0.796875 -0.34375 -3.328125l0 -9.546875l-2.0625 0l0 -2.1875l2.0625 0l0 -4.109375l2.796875 -1.6875l0 5.796875l2.828125 0l0 2.1875l-2.828125 0l0 9.703125q0 1.203125 0.140625 1.546875q0.15625 0.34375 0.484375 0.546875q0.34375 0.203125 0.96875 0.203125q0.46875 0 1.234375 -0.109375zm2.765625 -17.15625l0 -3.234375l2.8125 0l0 3.234375l-2.8125 0zm0 19.671875l0 -16.59375l2.8125 0l0 16.59375l-2.8125 0zm6.046875 -8.296875q0 -4.609375 2.5625 -6.828125q2.140625 -1.84375 5.21875 -1.84375q3.421875 0 5.59375 2.25q2.171875 2.234375 2.171875 6.1875q0 3.203125 -0.96875 5.046875q-0.953125 1.828125 -2.796875 2.84375q-1.828125 1.015625 -4.0 1.015625q-3.484375 0 -5.640625 -2.234375q-2.140625 -2.234375 -2.140625 -6.4375zm2.890625 0q0 3.1875 1.390625 4.78125q1.390625 1.578125 3.5 1.578125q2.09375 0 3.484375 -1.59375q1.390625 -1.59375 1.390625 -4.859375q0 -3.078125 -1.40625 -4.65625q-1.390625 -1.59375 -3.46875 -1.59375q-2.109375 0 -3.5 1.578125q-1.390625 1.578125 -1.390625 4.765625zm23.796875 0q0 -4.609375 2.5625 -6.828125q2.140625 -1.84375 5.21875 -1.84375q3.421875 0 5.59375 2.25q2.171875 2.234375 2.171875 6.1875q0 3.203125 -0.96875 5.046875q-0.953125 1.828125 -2.796875 2.84375q-1.828125 1.015625 -4.0 1.015625q-3.484375 0 -5.640625 -2.234375q-2.140625 -2.234375 -2.140625 -6.4375zm2.890625 0q0 3.1875 1.390625 4.78125q1.390625 1.578125 3.5 1.578125q2.09375 0 3.484375 -1.59375q1.390625 -1.59375 1.390625 -4.859375q0 -3.078125 -1.40625 -4.65625q-1.390625 -1.59375 -3.46875 -1.59375q-2.109375 0 -3.5 1.578125q-1.390625 1.578125 -1.390625 4.765625zm16.625 8.296875l0 -14.40625l-2.484375 0l0 -2.1875l2.484375 0l0 -1.765625q0 -1.671875 0.296875 -2.484375q0.40625 -1.09375 1.421875 -1.765625q1.03125 -0.6875 2.875 -0.6875q1.1875 0 2.625 0.28125l-0.421875 2.453125q-0.875 -0.15625 -1.65625 -0.15625q-1.28125 0 -1.8125 0.546875q-0.53125 0.546875 -0.53125 2.046875l0 1.53125l3.234375 0l0 2.1875l-3.234375 0l0 14.40625l-2.796875 0z" fill-rule="nonzero"/><path fill="#000000" d="m799.6195 367.09497l2.78125 -0.4375q0.234375 1.671875 1.296875 2.5625q1.078125 0.890625 3.0 0.890625q1.9375 0 2.875 -0.78125q0.9375 -0.796875 0.9375 -1.859375q0 -0.953125 -0.828125 -1.5q-0.578125 -0.375 -2.875 -0.953125q-3.09375 -0.78125 -4.296875 -1.34375q-1.1875 -0.578125 -1.8125 -1.578125q-0.609375 -1.015625 -0.609375 -2.234375q0 -1.109375 0.5 -2.046875q0.515625 -0.953125 1.390625 -1.578125q0.65625 -0.484375 1.78125 -0.8125q1.140625 -0.34375 2.4375 -0.34375q1.953125 0 3.421875 0.5625q1.484375 0.5625 2.1875 1.53125q0.703125 0.953125 0.96875 2.5625l-2.75 0.375q-0.1875 -1.28125 -1.09375 -2.0q-0.890625 -0.71875 -2.53125 -0.71875q-1.9375 0 -2.765625 0.640625q-0.828125 0.640625 -0.828125 1.5q0 0.546875 0.34375 0.984375q0.34375 0.453125 1.078125 0.75q0.421875 0.15625 2.484375 0.71875q2.984375 0.796875 4.15625 1.3125q1.1875 0.5 1.859375 1.46875q0.671875 0.96875 0.671875 2.40625q0 1.40625 -0.828125 2.65625q-0.8125 1.234375 -2.359375 1.921875q-1.546875 0.671875 -3.5 0.671875q-3.234375 0 -4.9375 -1.34375q-1.6875 -1.34375 -2.15625 -3.984375zm28.0 4.953125l0 -2.4375q-1.9375 2.8125 -5.265625 2.8125q-1.46875 0 -2.75 -0.5625q-1.265625 -0.5625 -1.890625 -1.40625q-0.609375 -0.859375 -0.859375 -2.09375q-0.171875 -0.828125 -0.171875 -2.625l0 -10.28125l2.8125 0l0 9.203125q0 2.203125 0.171875 2.96875q0.265625 1.109375 1.125 1.75q0.859375 0.625 2.125 0.625q1.265625 0 2.375 -0.640625q1.109375 -0.65625 1.5625 -1.765625q0.46875 -1.125 0.46875 -3.25l0 -8.890625l2.8125 0l0 16.59375l-2.515625 0zm6.921875 6.359375l0 -22.953125l2.5625 0l0 2.15625q0.90625 -1.265625 2.046875 -1.890625q1.140625 -0.640625 2.765625 -0.640625q2.125 0 3.75 1.09375q1.625 1.09375 2.453125 3.09375q0.828125 1.984375 0.828125 4.359375q0 2.546875 -0.921875 4.59375q-0.90625 2.03125 -2.65625 3.125q-1.734375 1.078125 -3.65625 1.078125q-1.40625 0 -2.53125 -0.59375q-1.109375 -0.59375 -1.828125 -1.5l0 8.078125l-2.8125 0zm2.546875 -14.5625q0 3.203125 1.296875 4.734375q1.296875 1.53125 3.140625 1.53125q1.875 0 3.203125 -1.578125q1.34375 -1.59375 1.34375 -4.921875q0 -3.171875 -1.3125 -4.75q-1.296875 -1.578125 -3.109375 -1.578125q-1.796875 0 -3.1875 1.6875q-1.375 1.671875 -1.375 4.875zm15.25 14.5625l0 -22.953125l2.5625 0l0 2.15625q0.90625 -1.265625 2.046875 -1.890625q1.140625 -0.640625 2.765625 -0.640625q2.125 0 3.75 1.09375q1.625 1.09375 2.453125 3.09375q0.828125 1.984375 0.828125 4.359375q0 2.546875 -0.921875 4.59375q-0.90625 2.03125 -2.65625 3.125q-1.734375 1.078125 -3.65625 1.078125q-1.40625 0 -2.53125 -0.59375q-1.109375 -0.59375 -1.828125 -1.5l0 8.078125l-2.8125 0zm2.546875 -14.5625q0 3.203125 1.296875 4.734375q1.296875 1.53125 3.140625 1.53125q1.875 0 3.203125 -1.578125q1.34375 -1.59375 1.34375 -4.921875q0 -3.171875 -1.3125 -4.75q-1.296875 -1.578125 -3.109375 -1.578125q-1.796875 0 -3.1875 1.6875q-1.375 1.671875 -1.375 4.875zm14.203125 -0.09375q0 -4.609375 2.5625 -6.828125q2.140625 -1.84375 5.21875 -1.84375q3.421875 0 5.59375 2.25q2.171875 2.234375 2.171875 6.1875q0 3.203125 -0.96875 5.046875q-0.953125 1.828125 -2.796875 2.84375q-1.828125 1.015625 -4.0 1.015625q-3.484375 0 -5.640625 -2.234375q-2.140625 -2.234375 -2.140625 -6.4375zm2.890625 0q0 3.1875 1.390625 4.78125q1.390625 1.578125 3.5 1.578125q2.09375 0 3.484375 -1.59375q1.390625 -1.59375 1.390625 -4.859375q0 -3.078125 -1.40625 -4.65625q-1.390625 -1.59375 -3.46875 -1.59375q-2.109375 0 -3.5 1.578125q-1.390625 1.578125 -1.390625 4.765625zm15.921875 8.296875l0 -16.59375l2.53125 0l0 2.515625q0.96875 -1.765625 1.78125 -2.328125q0.828125 -0.5625 1.8125 -0.5625q1.421875 0 2.890625 0.90625l-0.96875 2.609375q-1.03125 -0.609375 -2.0625 -0.609375q-0.921875 0 -1.65625 0.5625q-0.734375 0.546875 -1.046875 1.53125q-0.46875 1.5 -0.46875 3.28125l0 8.6875l-2.8125 0zm16.828125 -2.515625l0.40625 2.484375q-1.1875 0.25 -2.125 0.25q-1.53125 0 -2.375 -0.484375q-0.84375 -0.484375 -1.1875 -1.265625q-0.34375 -0.796875 -0.34375 -3.328125l0 -9.546875l-2.0625 0l0 -2.1875l2.0625 0l0 -4.109375l2.796875 -1.6875l0 5.796875l2.828125 0l0 2.1875l-2.828125 0l0 9.703125q0 1.203125 0.140625 1.546875q0.15625 0.34375 0.484375 0.546875q0.34375 0.203125 0.96875 0.203125q0.46875 0 1.234375 -0.109375zm14.109375 -2.828125l2.90625 0.359375q-0.6875 2.546875 -2.546875 3.953125q-1.859375 1.40625 -4.75 1.40625q-3.640625 0 -5.78125 -2.234375q-2.125 -2.25 -2.125 -6.296875q0 -4.1875 2.15625 -6.5q2.15625 -2.3125 5.59375 -2.3125q3.328125 0 5.4375 2.265625q2.109375 2.265625 2.109375 6.375q0 0.25 -0.015625 0.75l-12.375 0q0.15625 2.734375 1.546875 4.1875q1.390625 1.453125 3.46875 1.453125q1.546875 0 2.640625 -0.8125q1.09375 -0.8125 1.734375 -2.59375zm-9.234375 -4.546875l9.265625 0q-0.1875 -2.09375 -1.0625 -3.140625q-1.34375 -1.625 -3.484375 -1.625q-1.9375 0 -3.265625 1.296875q-1.3125 1.296875 -1.453125 3.46875zm26.4375 9.890625l0 -2.09375q-1.578125 2.46875 -4.640625 2.46875q-1.984375 0 -3.65625 -1.09375q-1.65625 -1.09375 -2.578125 -3.046875q-0.90625 -1.96875 -0.90625 -4.515625q0 -2.484375 0.828125 -4.5q0.828125 -2.03125 2.484375 -3.109375q1.65625 -1.078125 3.703125 -1.078125q1.5 0 2.671875 0.640625q1.171875 0.625 1.90625 1.640625l0 -8.21875l2.796875 0l0 22.90625l-2.609375 0zm-8.890625 -8.28125q0 3.1875 1.34375 4.765625q1.34375 1.578125 3.171875 1.578125q1.84375 0 3.125 -1.5q1.296875 -1.515625 1.296875 -4.609375q0 -3.40625 -1.3125 -5.0q-1.3125 -1.59375 -3.234375 -1.59375q-1.875 0 -3.140625 1.53125q-1.25 1.53125 -1.25 4.828125z" fill-rule="nonzero"/><path fill="#000000" d="m803.96326 410.0481l8.796875 -22.90625l3.265625 0l9.375 22.90625l-3.453125 0l-2.671875 -6.9375l-9.578125 0l-2.515625 6.9375l-3.21875 0zm6.609375 -9.40625l7.765625 0l-2.390625 -6.34375q-1.09375 -2.890625 -1.625 -4.75q-0.4375 2.203125 -1.234375 4.375l-2.515625 6.71875zm17.25 9.40625l0 -22.90625l8.640625 0q2.28125 0 3.484375 0.21875q1.6875 0.28125 2.828125 1.078125q1.140625 0.78125 1.828125 2.203125q0.703125 1.421875 0.703125 3.125q0 2.921875 -1.859375 4.953125q-1.859375 2.015625 -6.71875 2.015625l-5.875 0l0 9.3125l-3.03125 0zm3.03125 -12.015625l5.921875 0q2.9375 0 4.171875 -1.09375q1.234375 -1.09375 1.234375 -3.078125q0 -1.4375 -0.734375 -2.453125q-0.71875 -1.03125 -1.90625 -1.359375q-0.765625 -0.203125 -2.828125 -0.203125l-5.859375 0l0 8.1875zm18.828125 12.015625l0 -22.90625l3.03125 0l0 22.90625l-3.03125 0zm23.046875 -2.515625l0.40625 2.484375q-1.1875 0.25 -2.125 0.25q-1.53125 0 -2.375 -0.484375q-0.84375 -0.484375 -1.1875 -1.265625q-0.34375 -0.796875 -0.34375 -3.328125l0 -9.546875l-2.0625 0l0 -2.1875l2.0625 0l0 -4.109375l2.796875 -1.6875l0 5.796875l2.828125 0l0 2.1875l-2.828125 0l0 9.703125q0 1.203125 0.140625 1.546875q0.15625 0.34375 0.484375 0.546875q0.34375 0.203125 0.96875 0.203125q0.46875 0 1.234375 -0.109375zm2.625 8.90625l-0.3125 -2.640625q0.921875 0.25 1.609375 0.25q0.9375 0 1.5 -0.3125q0.5625 -0.3125 0.921875 -0.875q0.265625 -0.421875 0.859375 -2.09375q0.078125 -0.234375 0.25 -0.6875l-6.296875 -16.625l3.03125 0l3.453125 9.609375q0.671875 1.828125 1.203125 3.84375q0.484375 -1.9375 1.15625 -3.78125l3.546875 -9.671875l2.8125 0l-6.3125 16.875q-1.015625 2.734375 -1.578125 3.765625q-0.75 1.390625 -1.71875 2.03125q-0.96875 0.65625 -2.3125 0.65625q-0.8125 0 -1.8125 -0.34375zm16.125 -0.03125l0 -22.953125l2.5625 0l0 2.15625q0.90625 -1.265625 2.046875 -1.890625q1.140625 -0.640625 2.765625 -0.640625q2.125 0 3.75 1.09375q1.625 1.09375 2.453125 3.09375q0.828125 1.984375 0.828125 4.359375q0 2.546875 -0.921875 4.59375q-0.90625 2.03125 -2.65625 3.125q-1.734375 1.078125 -3.65625 1.078125q-1.40625 0 -2.53125 -0.59375q-1.109375 -0.59375 -1.828125 -1.5l0 8.078125l-2.8125 0zm2.546875 -14.5625q0 3.203125 1.296875 4.734375q1.296875 1.53125 3.140625 1.53125q1.875 0 3.203125 -1.578125q1.34375 -1.59375 1.34375 -4.921875q0 -3.171875 -1.3125 -4.75q-1.296875 -1.578125 -3.109375 -1.578125q-1.796875 0 -3.1875 1.6875q-1.375 1.671875 -1.375 4.875zm26.609375 2.859375l2.90625 0.359375q-0.6875 2.546875 -2.546875 3.953125q-1.859375 1.40625 -4.75 1.40625q-3.640625 0 -5.78125 -2.234375q-2.125 -2.25 -2.125 -6.296875q0 -4.1875 2.15625 -6.5q2.15625 -2.3125 5.59375 -2.3125q3.328125 0 5.4375 2.265625q2.109375 2.265625 2.109375 6.375q0 0.25 -0.015625 0.75l-12.375 0q0.15625 2.734375 1.546875 4.1875q1.390625 1.453125 3.46875 1.453125q1.546875 0 2.640625 -0.8125q1.09375 -0.8125 1.734375 -2.59375zm-9.234375 -4.546875l9.265625 0q-0.1875 -2.09375 -1.0625 -3.140625q-1.34375 -1.625 -3.484375 -1.625q-1.9375 0 -3.265625 1.296875q-1.3125 1.296875 -1.453125 3.46875zm14.546875 4.9375l2.78125 -0.4375q0.234375 1.671875 1.296875 2.5625q1.078125 0.890625 3.0 0.890625q1.9375 0 2.875 -0.78125q0.9375 -0.796875 0.9375 -1.859375q0 -0.953125 -0.828125 -1.5q-0.578125 -0.375 -2.875 -0.953125q-3.09375 -0.78125 -4.296875 -1.34375q-1.1875 -0.578125 -1.8125 -1.578125q-0.609375 -1.015625 -0.609375 -2.234375q0 -1.109375 0.5 -2.046875q0.515625 -0.953125 1.390625 -1.578125q0.65625 -0.484375 1.78125 -0.8125q1.140625 -0.34375 2.4375 -0.34375q1.953125 0 3.421875 0.5625q1.484375 0.5625 2.1875 1.53125q0.703125 0.953125 0.96875 2.5625l-2.75 0.375q-0.1875 -1.28125 -1.09375 -2.0q-0.890625 -0.71875 -2.53125 -0.71875q-1.9375 0 -2.765625 0.640625q-0.828125 0.640625 -0.828125 1.5q0 0.546875 0.34375 0.984375q0.34375 0.453125 1.078125 0.75q0.421875 0.15625 2.484375 0.71875q2.984375 0.796875 4.15625 1.3125q1.1875 0.5 1.859375 1.46875q0.671875 0.96875 0.671875 2.40625q0 1.40625 -0.828125 2.65625q-0.8125 1.234375 -2.359375 1.921875q-1.546875 0.671875 -3.5 0.671875q-3.234375 0 -4.9375 -1.34375q-1.6875 -1.34375 -2.15625 -3.984375z" fill-rule="nonzero"/><path fill="#3d85c6" d="m825.7874 592.563l18.64563 0l0 18.64569l-18.64563 0z" fill-rule="evenodd"/><path stroke="#000000" stroke-width="3.0" stroke-linejoin="round" stroke-linecap="butt" d="m825.7874 592.563l18.64563 0l0 18.64569l-18.64563 0z" fill-rule="evenodd"/><path fill="#3d85c6" d="m825.7874 611.2015l18.64563 0l0 18.64569l-18.64563 0z" fill-rule="evenodd"/><path stroke="#000000" stroke-width="3.0" stroke-linejoin="round" stroke-linecap="butt" d="m825.7874 611.2015l18.64563 0l0 18.64569l-18.64563 0z" fill-rule="evenodd"/><path fill="#3d85c6" d="m825.7874 629.83997l18.64563 0l0 18.64569l-18.64563 0z" fill-rule="evenodd"/><path stroke="#000000" stroke-width="3.0" stroke-linejoin="round" stroke-linecap="butt" d="m825.7874 629.83997l18.64563 0l0 18.64569l-18.64563 0z" fill-rule="evenodd"/><path fill="#3d85c6" d="m825.7874 648.47845l18.64563 0l0 18.64569l-18.64563 0z" fill-rule="evenodd"/><path stroke="#000000" stroke-width="3.0" stroke-linejoin="round" stroke-linecap="butt" d="m825.7874 648.47845l18.64563 0l0 18.64569l-18.64563 0z" fill-rule="evenodd"/><path fill="#3d85c6" d="m825.7874 667.11694l18.64563 0l0 18.64569l-18.64563 0z" fill-rule="evenodd"/><path stroke="#000000" stroke-width="3.0" stroke-linejoin="round" stroke-linecap="butt" d="m825.7874 667.11694l18.64563 0l0 18.64569l-18.64563 0z" fill-rule="evenodd"/><path fill="#3d85c6" d="m844.4259 592.563l81.82678 0l0 93.19684l-81.82678 0z" fill-rule="evenodd"/><path stroke="#000000" stroke-width="3.0" stroke-linejoin="round" stroke-linecap="butt" d="m844.4259 592.563l81.82678 0l0 93.19684l-81.82678 0z" fill-rule="evenodd"/></g></svg>